ply
format ascii 1.0
element vertex 1245
property float x
property float y
property float z
property float d_vert
property int component_size
end_header
0.29348388 0.11000744 0.01586645 0.99316406 7
0.29083657 0.10644532 -0.02636719 0.97363281 2
0.27522761 0.15136719 -0.03417969 0.98583984 2
0.26464844 0.10449219 0.05371094 0.95166016 1
0.28808591 0.05959327 0.05564110 0.96630859 3
0.29003906 0.10402428 -0.07207598 0.97167969 3
0.27196082 0.14746092 -0.08033802 0.96826172 3
0.29980469 0.05881681 -0.02441406 0.97363281 2
0.27958664 0.00683594 -0.14550781 0.99267578 2
0.29394531 0.05448078 -0.11220008 0.97216797 3
0.28417969 0.05251370 -0.14550781 0.97119141 2
0.28391811 0.10058594 -0.11502013 0.96630859 3
0.27194130 0.09825236 -0.14746092 0.97216797 3
0.24304220 0.18414390 -0.09019589 0.98095703 4
0.24707030 0.18847656 -0.04589844 0.99023438 1
0.26269531 0.14304939 -0.12207032 0.96875000 2
0.25097656 0.14160156 -0.15527344 0.96826172 1
0.23325920 0.18052484 -0.13183594 0.99072266 2
0.21104521 0.21777344 -0.05957031 0.97949219 2
0.24740800 0.19323330 -0.00413059 0.96240234 6
0.19628906 0.20680144 0.01863134 0.96728516 3
0.21191406 0.22357902 -0.01841130 0.98828125 3
0.24902344 0.14550781 0.04394531 0.97314453 1
0.23535156 0.18457031 0.03417969 0.96142578 1
0.30371094 0.00683594 0.00862191 0.98339844 2
0.28808594 -0.03759895 -0.03222656 0.97705078 2
0.29589844 -0.04394531 -0.00097656 0.97021484 1
0.29980469 0.00878906 -0.02832031 0.95947266 1
0.26855469 -0.08105469 -0.03808594 0.97753906 1
0.27579847 -0.08886719 -0.00878906 0.97900391 2
0.27636719 -0.04394532 0.02573158 1.00000000 2
0.23730469 -0.11816406 0.00197981 0.97753906 2
0.26269531 -0.08496094 0.01269531 0.97070312 1
0.24463142 -0.12597656 -0.01269531 0.96386719 2
0.28417969 -0.03613281 -0.07324219 0.98339844 1
0.23816563 -0.11816406 -0.04589844 0.97998047 2
0.26292771 -0.07799401 -0.07758855 0.96679688 5
0.23698087 -0.07519531 -0.15527344 0.98046875 2
0.22200592 -0.11468997 -0.12868810 0.97753906 3
0.29785153 0.00970434 -0.06965125 0.97314453 3
0.27573398 -0.03655231 -0.11621094 0.98291016 3
0.26269531 -0.03613281 -0.14941406 0.96191406 1
0.29003906 0.00791214 -0.11230469 0.96582031 2
0.29980469 0.05761719 -0.06933594 0.98242188 1
0.09277344 -0.17675783 -0.07714844 0.96240234 1
0.09315159 -0.17563166 -0.04589844 0.98388672 4
0.14941406 -0.16699219 -0.03417969 0.95996094 1
0.09981082 -0.17675781 -0.00878906 0.97998047 2
0.03808594 -0.17609726 -0.08584269 0.97460938 4
0.03913159 -0.17675781 -0.04980468 0.97216797 2
0.14826740 -0.16894530 -0.06579729 0.96435547 3
0.14278415 -0.16503906 -0.10644532 0.97802734 2
0.08762009 -0.17480467 -0.11816406 0.97363281 2
-0.05175781 -0.13769531 -0.19238281 0.99804688 1
-0.06792684 -0.14160156 -0.16503906 0.95556641 2
0.07519531 -0.16699219 -0.15820312 0.95214844 2
0.02391279 -0.16503906 -0.16503906 0.97460938 2
0.19107161 -0.14283070 -0.09472656 0.98876953 3
0.19433594 -0.14355469 -0.05566406 0.95166016 1
0.06152343 -0.16113281 -0.18847656 0.95556641 1
0.11292718 -0.15332031 -0.18066406 0.98486328 2
0.13058551 -0.15855446 -0.14746094 0.97656250 3
0.16142832 -0.13574219 -0.17089844 0.99218750 2
0.17871094 -0.14103825 -0.13713200 0.97216797 2
0.23339845 -0.11621094 -0.08564840 0.96923828 2
0.20215525 -0.15721974 -0.02143692 0.97949219 3
0.02341088 0.25440699 0.01007008 0.97998047 7
0.04308981 0.21386719 0.03613281 0.97656250 2
0.01855469 0.22363283 0.07518760 0.99951172 2
0.04785156 0.22167969 0.03417969 0.95214844 1
0.04003906 -0.01078650 0.16699219 0.97949219 2
0.05761719 0.00696757 0.18652344 0.95947266 2
0.04616479 0.04705994 0.17610309 0.97363281 4
0.07003947 -0.20214844 0.03004235 0.95947266 3
0.04785156 -0.20537275 0.06375862 0.99902344 4
0.04785156 -0.15510902 -0.00488281 0.99462891 2
0.04980468 -0.18066406 0.00488281 0.97265625 1
0.02050781 -0.12597656 0.03613281 0.95898438 1
0.03027344 -0.13769531 0.01092716 0.95654297 2
0.02316336 -0.15136719 0.04003906 0.99121094 2
-0.00683594 -0.15847272 -0.02832031 0.98046875 2
0.01660156 -0.15722656 -0.01464844 0.99609375 1
0.03808594 -0.16308594 0.01074219 0.97509766 1
0.03222656 -0.15136719 0.08754334 0.96582031 2
0.05566406 -0.13958815 0.15057145 0.98535156 4
0.04589844 -0.18066406 0.10839843 0.96923828 1
0.03417968 -0.12597656 0.12329853 0.96191406 2
-0.01392007 -0.14746092 -0.06152344 0.95361328 2
0.00488281 -0.15722656 -0.05761719 0.97656250 1
0.00097656 -0.15786459 -0.08886719 0.99267578 2
-0.12873790 -0.14160156 -0.08105469 0.95996094 2
-0.12402344 -0.14255857 -0.04589844 0.98730469 2
-0.08665832 -0.15136719 -0.08496094 0.98046875 2
-0.07905187 -0.14160158 -0.00092687 0.95751953 2
-0.08300781 -0.15264891 -0.04785156 0.98486328 2
-0.12597656 -0.13769531 -0.00683594 0.96142578 1
-0.16113281 -0.12011719 -0.00114081 1.00000000 2
-0.16503906 -0.12402344 -0.04394531 0.97412109 1
-0.17129312 -0.12271730 -0.08067216 0.96826172 5
-0.09472656 -0.14941406 -0.12402343 0.98291016 1
-0.13769531 -0.13864568 -0.11816406 0.97802734 2
0.19766878 0.21170448 -0.14334510 0.98925781 3
-0.14550781 -0.13378906 -0.15527344 0.97216797 1
-0.14982733 -0.12988280 -0.18261719 0.95800781 2
-0.02050781 -0.15332031 -0.09082031 0.97460938 1
-0.16531812 0.19238280 -0.17871094 0.98046875 2
-0.16498648 0.20182432 -0.15136720 0.98632812 3
-0.01464844 -0.15332030 -0.16503906 0.97656250 1
-0.02441406 -0.14355469 -0.19238281 0.95507812 1
-0.04199219 -0.14550781 -0.16503906 0.98242188 1
0.03417969 -0.17285156 -0.12597656 0.98046875 1
-0.23925781 -0.03574755 -0.02246094 0.97265625 2
-0.22558594 0.00683594 0.01464844 0.96484375 1
-0.25292969 0.00292969 -0.02050781 0.97998047 1
-0.25878906 -0.02966991 -0.10688252 0.96875000 3
-0.23049191 -0.06738281 -0.07004254 0.97607422 4
-0.23937665 -0.06347656 -0.11035157 0.99072266 2
-0.26269531 0.00611957 -0.06542969 0.96972656 2
-0.25097656 -0.03417969 -0.06542969 0.97607422 1
-0.27246094 0.01464844 -0.14797691 0.96142578 2
-0.27344888 0.05566406 -0.17969888 0.97119141 2
-0.27246094 0.01464844 -0.17871094 0.97656250 1
-0.26464844 -0.02558372 -0.14746094 0.97070312 2
-0.21730357 -0.09667969 -0.11230469 0.98144531 2
-0.20410156 -0.09667969 -0.07519531 0.97753906 1
-0.24676555 -0.05761719 -0.17871094 0.95898438 2
-0.24537376 -0.05957032 -0.14746095 0.98681641 2
-0.22167969 -0.08496094 -0.17871094 0.95361328 1
-0.22167967 -0.09082031 -0.14806210 0.95263672 2
-0.18144409 -0.12134980 -0.11621094 0.97558594 3
-0.21972656 -0.06933594 -0.02832031 0.95117188 1
-0.19529067 -0.09863281 -0.03584033 0.97900391 3
-0.18265285 -0.09085597 0.00292969 0.98681641 2
-0.12597656 -0.12402344 0.00488281 0.97900391 1
-0.10449219 -0.14941406 0.01660156 0.95507812 1
-0.22558594 0.03975017 0.00292969 0.97363281 2
-0.24121094 0.03808594 0.01074219 0.95947266 1
-0.25097656 0.00097656 0.04199219 0.97949219 1
-0.23925783 0.00097656 0.01855469 0.98925781 1
-0.24041083 0.09534230 0.02505729 0.96728516 4
-0.05957032 -0.15480904 0.02246094 0.98193359 2
-0.08886719 -0.13378906 0.00878906 0.96484375 1
-0.04003906 -0.13574219 0.02050781 0.98583984 1
-0.07519531 -0.16894531 0.06542969 0.95849609 1
-0.09082031 -0.16308594 0.03417969 0.97363281 1
-0.02650039 -0.16503905 0.09562419 0.96826172 3
-0.03613281 -0.16894531 0.05371094 0.96679688 1
0.00097656 -0.14621609 0.03808594 0.97265625 2
0.00683594 -0.15722656 0.08509152 0.98681641 2
-0.06738281 -0.16200766 0.09863281 0.97070312 2
-0.09809238 0.22949217 -0.02698982 0.98046875 5
-0.13964844 0.20605469 -0.04199219 0.96240234 1
-0.12988281 0.19433594 -0.03417969 0.97949219 1
-0.18066406 0.19559419 -0.01269531 0.98925781 2
-0.17871094 0.18847656 -0.03808594 0.99365234 1
-0.12792969 0.20410156 -0.02050781 0.97119141 1
-0.06151305 0.13523060 0.09396704 0.96435547 4
-0.09863281 0.15332031 0.07519531 0.95703125 1
-0.10839844 0.16894531 0.07910156 0.97900391 1
-0.10058594 0.16503906 0.04589844 0.95556641 1
-0.11621094 0.13964844 0.10779745 0.97460938 2
-0.20465510 -0.06152344 0.01269531 0.98876953 2
-0.18652344 -0.09082031 0.01269531 0.95019531 1
-0.15527344 -0.10644531 0.00748000 0.96826172 2
-0.22612874 -0.07714844 0.03613281 0.98095703 2
-0.25996462 0.09863281 -0.06868926 0.97900391 3
-0.25488281 0.04980468 -0.02441406 0.97509766 1
-0.24121092 0.09472656 -0.03222656 0.98242188 1
-0.26846626 0.05120724 -0.06542969 0.98193359 3
-0.21972656 0.08277377 -0.01269531 0.98730469 2
-0.21925130 0.13780636 -0.04324456 0.96972656 4
-0.23730469 0.14550781 -0.07519531 0.99072266 1
-0.19437890 0.12607320 -0.03027344 0.99951172 3
-0.18457031 0.17871094 -0.05566406 0.98535156 1
-0.23917980 0.14278550 -0.11230469 0.98046875 3
-0.26464844 0.10110191 -0.10983559 0.96142578 2
0.20410156 -0.11006375 -0.16279814 0.97656250 2
-0.24121094 0.14297524 -0.14941406 0.96435547 2
-0.26551738 0.10142551 -0.14941408 1.00000000 4
-0.26111475 0.09667969 -0.17908350 0.96533203 2
-0.23925781 0.13574219 -0.17871095 0.95166016 1
-0.27441406 0.05761719 -0.14941406 0.98193359 1
-0.27246094 0.01074219 -0.10725580 0.96679688 2
-0.27246094 0.05566406 -0.10839844 0.98681641 1
0.01269531 0.27050781 -0.15527344 0.98144531 1
-0.03613281 0.26028782 -0.15527344 0.97802734 2
0.00488281 0.27873647 -0.11140526 0.96533203 3
0.03389196 0.25766340 -0.05826614 0.97607422 5
0.04394532 0.26115814 -0.10449219 0.98681641 2
-0.04199219 0.26855469 -0.11425781 0.99169922 1
-0.00197032 0.29003906 -0.06347656 0.97363281 4
-0.04587165 0.15656917 -0.34665290 0.98242188 3
-0.12597656 0.19992857 -0.20800781 0.98828125 2
-0.13445282 0.18261717 -0.25165567 0.96630859 3
-0.16555491 0.18488133 -0.20233434 0.98437500 5
-0.00037935 0.23925781 -0.19628906 0.97705078 2
-0.04003907 0.25683594 -0.19433594 0.97705078 1
0.01464844 0.27050781 -0.18652344 0.98486328 1
-0.16418311 0.21019892 -0.12207032 0.98242188 3
-0.19752169 0.18059854 -0.08496094 0.98828125 3
-0.20323646 0.17675783 -0.11816406 0.96191406 2
-0.10253907 0.22865193 -0.09863282 0.98388672 2
-0.15552057 0.21263638 -0.09082031 0.97021484 3
-0.14602144 0.21191406 -0.06542969 0.99023438 2
-0.01130167 0.21191408 0.11621094 0.96386719 2
-0.01074219 0.21191406 0.11230468 0.95898438 1
-0.05343839 0.03676493 0.15917969 0.97705078 3
0.00490415 0.01074219 0.17482603 0.96777344 2
-0.03787962 0.00770934 0.18066406 0.95703125 3
-0.01660156 0.04199219 0.15332031 0.95361328 1
-0.06347656 0.07324219 0.14355469 0.95166016 1
-0.09863282 0.03027344 0.16699219 0.95019531 1
-0.08881938 -0.00882098 0.18432583 0.98486328 5
-0.05175781 0.17089844 0.11425781 0.95996094 1
-0.04003906 0.16113280 0.11425781 0.96435547 1
0.14941406 -0.15527344 -0.00683594 0.98730469 1
0.20410158 -0.15888608 -0.00068295 0.98974609 2
0.19433594 -0.13574219 -0.00097656 0.99462891 1
0.15668614 -0.19042970 0.01855469 0.98242188 2
0.20410156 -0.16894531 0.02832031 0.98486328 1
0.20214844 0.20996094 0.02246094 0.99316406 1
0.26858506 0.15254509 0.06738281 0.97656250 3
0.24395262 0.19459730 0.05957031 0.96923828 3
0.10839844 -0.15722656 0.00488281 0.98437500 1
0.11035156 -0.17675781 0.01464844 0.98144531 1
-0.20605467 0.17569618 -0.15136719 0.98046875 2
0.07714844 0.25486910 -0.09827767 0.97265625 3
0.07519531 0.25878906 -0.05566406 0.98144531 1
0.16894531 0.24121094 -0.03417969 0.98925781 1
0.12070344 0.25234935 -0.08855197 0.97607422 4
0.12010668 0.24511720 -0.00292969 0.98632812 2
0.12207031 0.25292969 -0.04785156 0.98095703 1
0.11621094 0.25033575 -0.12988283 0.98339844 2
0.16699219 0.23730470 -0.07335716 0.96875000 2
-0.19086018 -0.12011719 -0.15136719 0.97314453 2
0.15310648 0.23099267 -0.15477799 0.98291016 4
0.13574217 0.22568691 -0.18076505 0.98046875 2
0.05165499 0.24619971 -0.14322700 0.98291016 4
0.07910156 0.24415040 -0.13769531 0.97460938 2
-0.02682800 -0.02246094 -0.46777344 0.97119141 2
-0.05371094 -0.01074219 -0.48925781 0.98925781 1
0.00292969 -0.00292969 -0.45214844 0.95361328 1
0.00488281 -0.02050781 -0.45019528 0.95556641 1
0.00488281 -0.03613281 -0.44628906 0.95166016 1
-0.05175781 -0.04003906 -0.47558594 0.95458984 1
-0.02441406 -0.04980469 -0.45019528 0.95507812 1
-0.02441406 -0.03808594 -0.46191406 0.95996094 1
0.00097656 -0.05957032 -0.43261719 0.96044922 1
-0.04199219 -0.06173168 -0.44259104 0.98437500 2
-0.01660156 -0.06152344 -0.43652344 0.96582031 1
-0.07128906 -0.05625618 -0.47167969 0.96728516 2
-0.08496094 -0.06933594 -0.45410156 0.96582031 1
-0.06542969 -0.06542969 -0.45019531 0.97656250 1
-0.11230469 -0.07128906 -0.45214844 0.95507812 1
-0.17480469 -0.04394531 -0.44824219 0.97949219 1
-0.18066406 -0.01269531 -0.45410159 0.97070312 1
-0.10058594 0.01074219 -0.48730469 0.95117188 1
-0.15136719 0.00097656 -0.48144531 1.00000000 1
-0.16113281 0.02246094 -0.44628909 0.96923828 1
-0.12792969 0.00683594 -0.47949219 0.96435547 1
-0.08886719 0.05175782 -0.45960617 0.98828125 2
-0.11230468 0.02441406 -0.46777344 0.96240234 1
-0.10839844 0.04785156 -0.45410156 0.96582031 1
-0.05371094 0.00097656 -0.48730469 0.97070312 1
-0.04980469 0.01660156 -0.47949219 0.95556641 1
-0.04589844 0.03613281 -0.46777344 0.95898438 1
-0.07128906 0.03222656 -0.47558594 0.98681641 1
-0.06542969 0.05482313 -0.45716688 0.97802734 2
-0.02246094 0.04003906 -0.45538273 0.98388672 2
-0.04003906 0.05761719 -0.45163593 0.98486328 2
-0.01660156 0.05957031 -0.44238281 0.99658203 1
-0.00097656 0.02832031 -0.44104058 0.98046875 2
0.03613281 -0.09863281 0.23535156 0.96435547 1
0.00230407 -0.11306006 0.22949217 0.96533203 3
0.05761719 -0.12826002 0.25488281 0.99414062 2
0.05761719 -0.18095545 0.29003906 0.95947266 2
0.02769747 -0.14488497 0.25097656 0.95458984 2
0.08496094 -0.16113283 0.28573358 0.98876953 2
0.10644532 -0.15527344 0.26074219 0.97070312 1
0.07905745 -0.12207031 0.23530744 0.95849609 2
-0.22558594 -0.03417969 0.02246094 0.97070312 1
-0.20996094 -0.06347656 0.01855469 0.98291016 1
-0.24511719 -0.04199219 0.04199219 0.96093750 1
-0.10644532 0.18847655 0.00956768 0.97607422 2
-0.12011719 0.18652344 0.04394531 0.96240234 1
0.03613281 -0.01660156 0.18457031 0.96142578 1
0.04589844 -0.03613281 0.19042969 0.96337891 1
0.03268060 -0.02808568 0.17089845 0.99804688 3
0.04383027 -0.06359160 0.17285156 0.96093750 2
0.04394531 -0.05761719 0.16503906 0.97265625 1
0.26074219 0.09863281 0.05818050 0.97216797 2
0.27441406 0.05761718 0.05957032 0.95214844 1
0.25097656 0.14160156 0.04980469 0.96142578 1
0.02050781 0.04394531 0.15527344 0.95458984 1
0.15722656 0.22558594 0.00488281 0.96484375 1
0.11816407 0.24511720 0.02050781 0.95556641 1
0.16308594 0.24316406 0.03417969 0.96630859 1
0.07744614 0.26074219 -0.01269531 0.98095703 2
0.08300781 0.22753906 0.00097656 0.96337891 1
0.06152344 0.22558594 0.01660156 0.96875000 1
0.08105469 0.23535156 0.00878906 0.96679688 1
0.27840278 -0.09604421 0.01919017 0.96093750 3
0.25097656 -0.13574219 0.01074219 0.98193359 1
0.29199219 -0.04658289 0.02636719 0.96484375 2
0.30175784 -0.05659960 0.05659960 0.95898438 4
0.27957258 -0.10253907 0.04589844 0.98437500 2
0.24542771 -0.14045814 0.03792049 0.97802734 4
0.01855469 0.18261719 0.09082031 0.95556641 1
0.03027344 0.19042969 0.08886719 0.96484375 1
0.28808597 0.00333366 0.04003906 0.98632812 2
0.29589844 0.05566406 0.07818924 0.96582031 2
0.30566406 -0.00097656 0.06933594 0.96191406 1
0.05761719 -0.07910156 0.16699219 0.96142578 1
0.07128907 -0.09082031 0.16894531 0.97753906 1
-0.00683594 0.07910156 0.14160156 0.95800781 1
0.00292969 0.04394531 0.15136719 0.96826172 1
0.01546478 0.08105469 0.16113281 0.98291016 2
-0.01855469 0.11425781 0.12988281 0.96386719 1
0.00377259 0.12400715 0.14941406 0.96337891 3
0.01269531 0.16508684 0.12468936 0.98730469 4
-0.02636719 0.13964844 0.10449219 1.00000000 1
-0.10839843 0.10668668 0.13183594 0.97216797 2
-0.16699220 0.16894531 -0.04483554 0.97705078 2
-0.21149343 0.14006907 -0.02050781 0.98095703 2
-0.09472656 0.10022474 -0.40722656 0.95947266 2
-0.11035156 0.09667969 -0.40332031 0.99072266 1
-0.09863281 0.14550781 -0.33886719 0.96386719 1
-0.07324219 0.15212750 -0.34472656 0.97558594 2
-0.00292969 0.19824219 -0.26074219 0.97070312 1
-0.08691406 0.12597656 -0.37988281 0.97705078 1
-0.06347656 0.13052393 -0.38183597 0.98437500 2
-0.10058594 0.07128906 -0.43066406 0.95166016 1
-0.14160156 0.08886719 -0.39576238 0.98388672 2
-0.15917969 0.07910156 -0.39160156 0.95556641 1
-0.14355469 0.06542969 -0.42089844 0.96533203 1
-0.15917969 0.05957031 -0.41647622 0.96142578 2
-0.18066406 0.06933594 -0.39355469 0.97119141 1
-0.16283143 0.10228456 -0.36425778 0.97412109 2
-0.14160156 0.11425781 -0.36816406 0.95703125 1
-0.18457033 0.08691406 -0.36230466 0.95605469 1
-0.19238281 0.10839844 -0.33105469 0.98730469 1
-0.07442416 0.19238281 -0.25997102 0.96826172 2
-0.10449219 0.18966694 -0.25683594 0.96630859 2
0.02129082 0.14680989 -0.32766753 0.97607422 3
-0.01464844 0.15527344 -0.34082031 0.98437500 1
-0.03808594 0.19727674 -0.26269531 0.97167969 2
-0.16503906 0.14621434 -0.29199219 0.99169922 2
-0.16503906 0.16503906 -0.24771440 0.96826172 2
-0.13574219 0.15722656 -0.29394531 0.97851562 1
-0.13769531 0.13574219 -0.33234900 0.96093750 2
-0.19853532 0.14309724 -0.24873036 0.98242188 4
-0.05869818 0.17675781 -0.30674505 0.97021484 2
-0.08886719 0.17019227 -0.30175781 0.98828125 2
0.01074219 -0.15917970 -0.19433592 0.95703125 1
-0.10449219 0.12207031 -0.37402344 0.99023438 1
-0.03027344 0.13378906 -0.38034320 0.98388672 2
0.07910156 0.22949219 -0.21386720 0.96484375 1
0.10449219 0.20800781 -0.25097656 0.95117188 1
0.12416956 0.22167969 -0.20459932 0.97363281 3
0.16749346 0.20214845 -0.19628906 0.97460938 2
0.07773658 0.18215483 -0.29589844 0.97802734 3
0.04003906 0.17285156 -0.29003906 0.96337891 1
0.14171143 0.18684570 -0.24231203 0.97802734 5
0.05175781 0.14941406 -0.32910156 0.95996094 1
-0.07324219 0.10269715 -0.41113281 0.99658203 2
-0.04589844 0.10449219 -0.40917969 0.95410156 1
0.06152344 0.20079017 -0.25097656 0.99169922 2
0.02956179 0.19824217 -0.25364131 0.95800781 2
0.02609340 0.11764281 -0.35644531 0.97656250 3
0.08496094 0.14001624 -0.32781440 0.99511719 3
0.03027344 0.08886719 -0.38724330 0.98632812 2
0.05566406 0.11230469 -0.35839844 0.97998047 1
-0.00488281 0.07910156 -0.42244098 0.98925781 2
0.00878906 0.09667969 -0.39160156 0.96826172 1
-0.01464844 0.10598480 -0.40332031 0.97753906 2
-0.05634670 0.08105469 -0.43755689 0.95947266 3
-0.20019531 -0.04589844 -0.40136719 0.98144531 1
-0.20605467 -0.02636719 -0.40332031 0.98925781 1
-0.21191406 -0.04785156 -0.37011719 0.96240234 1
-0.22179191 -0.00292969 -0.37207028 0.96923828 2
-0.19433594 -0.02832031 -0.43066406 0.98632812 1
-0.19628906 -0.01074219 -0.43261719 0.95703125 1
-0.16699219 -0.07128906 -0.42089844 0.95849609 1
-0.19824216 -0.06846534 -0.36829007 0.96630859 3
-0.18457031 -0.09082031 -0.33369026 0.96582031 2
-0.17871094 -0.08496094 -0.36816406 0.97509766 1
-0.24316406 -0.02246094 -0.29589844 0.97265625 1
-0.24111135 -0.05175782 -0.25088531 0.99365234 3
-0.23339844 -0.04980469 -0.29589844 0.98144531 1
-0.25292969 -0.02050781 -0.25097656 0.96728516 1
-0.25851697 0.01074219 -0.25198764 0.97265625 3
-0.24902344 0.00683594 -0.29785156 0.97705078 1
-0.23535156 0.00292969 -0.33691406 0.96630859 1
-0.22115085 -0.07857273 -0.24902342 0.96630859 2
-0.21524066 -0.07560527 -0.29422474 0.97558594 4
-0.22287029 -0.04904218 -0.33496091 0.97851562 2
-0.20800781 -0.07324219 -0.33496094 0.99072266 1
-0.19425941 -0.10449219 -0.25097656 0.99072266 2
-0.18974033 -0.09794345 -0.29394531 0.97363281 2
-0.26074219 -0.02158011 -0.20410156 0.96093750 2
-0.27050781 0.01464844 -0.20410158 0.99121094 1
-0.25645891 0.04589843 -0.25097653 0.95898438 2
-0.24511717 0.03613281 -0.29620433 0.97998047 2
-0.22363281 0.05371094 -0.33300781 0.98388672 1
-0.23144531 0.02636719 -0.33496094 0.95751953 1
-0.25683594 0.09277344 -0.20410156 0.98486328 1
-0.24659756 0.08105469 -0.25090063 0.98974609 3
-0.27246094 0.05371094 -0.20605467 0.96972656 1
-0.22753908 0.11621094 -0.24990612 0.95556641 2
-0.23535156 0.13082814 -0.20410156 0.97363281 2
-0.20410156 0.16113281 -0.20410156 0.95410156 1
-0.22097312 0.10058594 -0.29363263 0.97998047 3
-0.23730469 0.06933594 -0.29394531 0.95117188 1
-0.20996094 0.08105469 -0.33105469 0.96191406 1
-0.20296164 0.02913352 -0.39746094 0.96533203 2
-0.20800781 0.00878906 -0.40136719 0.95703125 1
-0.20140262 0.06468388 -0.36425784 0.98193359 2
-0.21386719 0.04199219 -0.36816406 0.95898438 1
-0.18457031 0.03613281 -0.41699219 0.98339844 1
-0.04394531 -0.10839844 -0.34277344 0.98486328 1
-0.01074219 -0.11605584 -0.34277344 0.99755859 2
-0.02636719 -0.10058594 -0.37402344 0.97753906 1
-0.06738281 -0.08496094 -0.40332031 0.97802734 1
-0.05566406 -0.09504388 -0.37402344 0.98876953 2
-0.01076296 -0.08691406 -0.39943483 0.96826172 2
-0.00292969 -0.07128906 -0.41894531 0.95312500 1
-0.03027344 -0.07128906 -0.42089844 0.95312500 1
0.01855469 -0.06542969 -0.41894531 0.98242188 1
0.04235806 -0.09277344 -0.36965096 0.97460938 3
0.04212117 -0.07128906 -0.39550781 0.98730469 2
0.06933594 -0.07714844 -0.36577687 0.97119141 2
0.09616277 -0.08219064 -0.32880133 0.98583984 3
0.02973063 -0.11314902 -0.33886719 0.96777344 3
0.07501838 -0.13495918 -0.25488281 0.99414062 4
0.00713665 -0.13102992 -0.30555794 0.98681641 4
0.05175781 -0.12207031 -0.29785156 0.97119141 1
0.02766066 -0.14545636 -0.26269531 0.97949219 3
-0.01568810 -0.13805489 -0.26464844 0.96044922 3
-0.03027344 -0.12207031 -0.30566406 0.97363281 1
0.11816406 -0.11728068 -0.24618693 0.97802734 2
0.09069505 -0.10719670 -0.29156053 0.97753906 4
0.06601254 -0.09921567 -0.33300781 0.95849609 2
0.14636075 -0.12988281 -0.19824219 0.97607422 2
0.10058594 -0.14757590 -0.20605467 0.97656250 2
0.04781801 -0.15489084 -0.21547125 0.96777344 3
0.00020736 -0.15527344 -0.21972656 0.96533203 2
-0.04589844 -0.12402344 -0.26074219 0.95947266 1
-0.07910156 -0.10839844 -0.29980469 0.96777344 1
-0.08691406 -0.10142399 -0.33691409 0.98144531 2
-0.05761719 -0.11230469 -0.30371094 0.96337891 1
-0.07128906 -0.12207031 -0.25878906 0.96337891 1
-0.05957031 -0.12988281 -0.21386719 0.97851562 1
-0.03333950 -0.13574219 -0.21693324 0.95996094 2
0.05175781 0.22167969 -0.21386719 0.99365234 1
0.00466277 0.17554578 -0.29611847 0.97509766 3
-0.15527344 -0.11621094 -0.25292969 0.97656250 1
-0.12008420 -0.11816407 -0.25488281 0.96142578 2
-0.15328456 -0.12490051 -0.20723271 0.96679688 4
-0.19433594 -0.11035156 -0.20410156 0.98242188 1
-0.15578781 -0.10965082 -0.29589844 0.97900391 3
-0.12402344 -0.10884458 -0.29589844 0.97705078 2
-0.15527344 -0.10253906 -0.33496094 0.99072266 1
-0.07714844 -0.09472656 -0.37402344 0.99609375 1
-0.15332031 -0.09472656 -0.37011719 0.96679688 1
-0.17285156 -0.07910156 -0.39746094 0.98193359 1
-0.10058594 -0.08886719 -0.40332031 0.95654297 1
-0.10644531 -0.08105469 -0.42871094 0.97998047 1
0.06738281 0.03417969 -0.39746094 0.98388672 1
0.09532756 0.07519531 -0.36425781 0.96142578 2
0.10253906 0.04785156 -0.36310798 0.97753906 2
0.13964844 0.06152344 -0.32324219 0.95751953 1
0.14583592 0.03031670 -0.32401022 0.98291016 4
0.07026771 0.01167396 -0.39848226 0.95556641 2
0.10543485 0.02050781 -0.36324733 0.99365234 2
0.03510013 0.02246094 -0.42675781 0.95898438 2
0.02832031 0.04003907 -0.41894534 0.97802734 1
0.04785156 0.07519531 -0.38964844 0.99267578 1
0.05957032 0.05566406 -0.39355469 0.98388672 1
0.02229748 0.05761718 -0.41503903 0.95214844 2
0.00878906 0.06933594 -0.40967762 0.96484375 2
0.07910156 0.09742095 -0.36144575 0.97119141 4
0.12810816 0.09369458 -0.32398489 0.96093750 5
0.11230469 0.12207031 -0.32714844 0.98779297 1
0.16894531 0.11425781 -0.28116342 0.97998047 2
0.18556876 0.07716791 -0.27721652 0.99218750 5
0.22949219 0.09082031 -0.22949219 0.99121094 1
0.23904230 0.04657701 -0.22668859 0.97558594 6
0.19433594 0.04003906 -0.27636719 0.95996094 1
0.20608994 0.12998030 -0.23269558 0.98388672 6
0.18038712 0.16503906 -0.24013333 0.96142578 3
0.14603458 0.14405853 -0.28428438 0.98828125 6
0.11550299 0.16628425 -0.28808594 0.96923828 2
0.20638947 0.17480470 -0.18887652 0.98339844 5
0.23956914 0.13964844 -0.18261719 0.98193359 2
0.25976309 0.09667465 -0.17588392 0.98144531 5
0.27328601 0.05175781 -0.17285156 0.97363281 2
0.19096592 0.00269531 -0.27840379 0.97998047 5
0.21605243 -0.03368714 -0.23038100 0.97851562 5
0.23344623 0.00488281 -0.22698611 0.98437500 3
0.17480469 -0.03222656 -0.28027344 0.97607422 1
0.14355469 -0.00097656 -0.32384700 0.97656250 2
0.26731285 0.00654730 -0.17309646 0.98339844 5
0.24902342 -0.03605633 -0.17675781 0.96679688 2
0.22257568 -0.07293973 -0.18261717 0.98095703 3
0.18998119 -0.06738281 -0.23498690 0.97656250 3
0.18847656 -0.10449219 -0.18928346 0.96484375 2
0.15363772 -0.06242065 -0.28297117 0.97851562 5
0.15613677 -0.09531011 -0.23940971 0.98437500 4
0.12597656 -0.08841435 -0.28763309 0.97167969 2
0.11816406 -0.05957031 -0.32714844 0.97363281 1
0.09845907 -0.03222656 -0.36233762 0.98632812 3
0.10449219 -0.00683594 -0.36374900 0.97412109 2
0.06738281 -0.03417969 -0.39550781 0.96093750 1
0.13378905 -0.03095965 -0.32396948 0.96972656 4
0.05761719 -0.05371094 -0.39355469 0.95800781 1
0.08691407 -0.05567839 -0.36231902 0.97656250 2
0.03027344 -0.05175781 -0.41894531 0.95800781 1
0.03760136 -0.01660156 -0.42675781 0.95947266 2
0.24707031 0.14692822 0.12490788 0.97460938 4
0.27832031 0.10024334 0.10839844 0.98535156 2
0.26411799 0.15332030 0.10058594 0.97802734 2
0.25969312 0.09082031 0.12688062 0.97119141 2
0.27441406 0.05165315 0.13574219 0.99658203 2
0.29003906 0.05566406 0.10839844 0.98876953 1
0.21972656 0.18652344 0.11035156 0.96289062 1
0.23484845 0.19433594 0.08746646 0.96777344 3
0.19628906 0.22167969 0.07128906 0.95898438 1
0.18734606 0.21386719 0.09472656 0.97509766 2
0.20019531 0.17031944 0.12597656 0.98291016 2
0.22181848 0.13378906 0.14160156 0.96533203 2
0.16113281 0.18066406 0.12402344 0.98681641 1
0.17480469 0.15917969 0.13964844 0.98974609 1
0.23535156 0.08182140 0.14409757 0.98681641 4
0.18847655 0.11983813 0.14941406 0.98046875 2
0.20880169 0.03613281 0.16615321 0.98632812 3
0.28027344 -0.00568609 0.13574219 0.97753906 2
0.29589844 -0.00228240 0.10253907 0.98388672 2
0.29086700 -0.05728456 0.09277344 0.96142578 3
0.24828833 -0.01074219 0.15722656 0.97216797 2
0.27175304 -0.05761719 0.12938678 0.99707031 3
0.24247026 -0.05957031 0.15332031 0.96630859 2
0.20410158 -0.06152344 0.16503906 0.99023438 1
0.25097656 -0.10253906 0.12011719 0.97802734 1
0.22236389 -0.10253906 0.14550781 0.97119141 2
0.18261720 -0.12136501 0.14870876 0.98144531 2
0.22129223 -0.13862312 0.11035156 0.98437500 3
0.20019531 -0.12988281 0.13574219 0.96972656 1
0.26874056 -0.10333116 0.08300781 0.98095703 4
0.23535156 -0.14088805 0.07324219 0.98681641 2
0.14779310 -0.18758485 0.05371093 0.97412109 3
0.13755040 -0.19372599 0.09504888 0.99609375 4
0.10449219 -0.19433594 0.04241965 0.97509766 2
0.09472656 -0.21191406 0.07714844 0.98632812 1
0.19374903 -0.16894530 0.06367864 0.97363281 3
0.18066406 -0.16621491 0.10253907 0.96728516 2
0.16605106 -0.15136719 0.13113897 0.97509766 3
0.15722656 -0.13183594 0.15136719 0.96093750 1
0.12597656 -0.15361392 0.16308594 0.98974609 2
0.13158999 -0.22447933 0.15450735 0.96582031 4
0.12402344 -0.23775055 0.12402344 0.96386719 2
0.13964844 -0.17871094 0.13574219 0.95556641 1
0.10839844 -0.26074219 0.20800781 0.98974609 1
0.11621094 -0.20888123 0.18153746 0.96533203 2
0.12045068 -0.28710136 0.14941406 0.96191406 3
0.12792969 -0.27441406 0.18066406 0.98193359 1
0.10885371 0.22933061 0.07112747 0.96777344 3
0.07128906 0.22558594 0.06738281 0.96582031 1
0.07714844 0.24218097 0.03613281 0.98681641 2
0.10253906 0.21191406 0.09472656 0.95458984 1
0.06542969 0.20410156 0.09277344 0.98486328 1
0.05761719 0.19483648 0.12792969 0.97607422 2
0.14746094 0.22753905 0.08105469 0.95068359 1
0.10253907 0.19678570 0.13459286 0.98486328 4
0.15570767 0.23925783 0.05805143 0.95410156 2
0.11621094 0.23973686 0.04637747 0.99267578 2
0.20604448 0.22752884 0.04785157 0.98730469 2
0.16113283 0.08535560 0.38346121 0.99462891 5
0.13574219 0.09863281 0.37792969 0.98095703 1
0.18054272 0.05009250 0.31644535 0.98876953 5
0.15034653 0.04367359 0.32101735 0.96240234 3
0.19042969 0.12668903 0.43453345 0.98828125 3
0.13378906 0.13126285 0.43566963 0.97753906 3
0.16113281 0.11621094 0.44238281 0.97705078 1
0.12792969 -0.10449219 0.17151064 0.98144531 2
0.13574219 -0.04889246 0.19031531 0.97607422 4
0.07562514 -0.03939309 0.19230142 0.99707031 4
0.09667969 -0.10058594 0.17256612 0.96826172 2
0.09082031 -0.14746094 0.16699219 0.96240234 1
0.15917969 -0.10058594 0.16503906 0.97021484 1
0.16503906 -0.05961391 0.17089842 0.97998047 2
0.16894531 -0.01074219 0.17285156 0.97607422 1
0.14355467 0.00488281 0.19022077 0.96386719 2
0.21184385 -0.01464844 0.17089844 0.98144531 2
0.16894531 0.03808594 0.17170021 0.97412109 2
0.12990738 0.05192244 0.18160011 0.98828125 5
0.11265855 0.10833943 0.17605707 0.97363281 4
0.07128906 0.06738281 0.16308594 0.99072266 1
0.11816406 0.07519531 0.17089844 0.97167969 1
0.08886719 0.06542969 0.18066406 0.95996094 1
0.16140780 0.07731280 0.16587977 0.98437500 4
0.20214844 0.07714844 0.15917969 0.95996094 1
0.11621094 0.15527344 0.16113281 0.97753906 1
0.14354263 0.15233772 0.14355467 0.96582031 3
0.15332031 0.11230468 0.15722656 0.96044922 1
0.06542969 0.10058594 0.21005896 0.98144531 2
0.09230929 0.13227521 0.26030916 0.98144531 6
0.10058594 0.12312691 0.21386720 0.96289062 2
0.05966356 0.11141919 0.25097656 0.97460938 3
-0.11931445 -0.15836030 0.07128906 0.96337891 3
-0.11231117 -0.15204081 0.09863281 0.98876953 3
-0.05147964 -0.15448131 0.13797347 0.97851562 3
-0.16299829 -0.14160156 0.07714844 0.98535156 2
-0.13183594 -0.15917969 0.04434748 0.96582031 2
-0.17089844 -0.13964844 0.05175781 0.95068359 1
-0.16894531 -0.12792969 0.02050781 0.98388672 1
-0.13600908 -0.14550783 0.01464844 0.97900391 2
-0.27246094 0.01102827 0.17480469 0.99951172 2
-0.30131072 0.03808594 0.17285156 1.00000000 2
-0.28808594 0.02246094 0.20325784 0.96630859 2
-0.20410156 -0.11621094 0.05761719 0.96533203 1
-0.19824219 -0.12011719 0.08496094 0.95068359 1
-0.20214845 -0.10839843 0.02832031 0.97167969 1
-0.23372515 -0.09433034 0.09667969 0.96728516 3
-0.21386720 -0.10644531 0.12792969 0.96093750 1
-0.18457031 -0.12124170 0.11230468 0.96484375 2
-0.14355469 -0.13378906 0.12011719 0.97070312 1
-0.16113281 -0.12332636 0.13378906 0.98730469 2
-0.18847656 -0.09886879 0.15573880 0.98730469 3
-0.23144533 -0.08496093 0.06347656 0.96337891 1
-0.25259459 -0.03613281 0.09277343 0.97216797 2
-0.24902344 -0.04394531 0.06738281 0.97851562 1
-0.19173175 0.12067965 0.09277344 0.96630859 3
-0.23977491 0.09341242 0.08675924 0.97363281 4
-0.21031155 0.13769531 0.06187405 0.96875000 2
-0.18724659 0.07128906 0.14618026 0.97216797 4
-0.21386719 0.08886719 0.11816406 0.97314453 1
-0.15917969 0.13378906 0.10253906 0.97167969 1
-0.18370908 0.17703466 0.04673272 0.97119141 4
-0.21386720 0.14605175 0.03222656 0.98339844 2
-0.18261719 0.18847655 0.01464844 0.97656250 1
-0.14241093 0.20991972 0.00878906 0.99609375 3
-0.14941406 0.18847655 0.04199219 0.97851562 1
-0.14550781 0.16308594 0.07302327 0.99023438 2
-0.22363281 0.04107410 0.19238281 0.96728516 2
-0.19042969 0.04003906 0.16503906 0.99023438 1
-0.22167969 0.07519531 0.17974056 0.95947266 2
-0.24121094 0.05566406 0.23730467 0.95556641 1
-0.24902345 0.01660156 0.19628908 0.96142578 1
-0.05566406 -0.14160156 0.15722656 0.96777344 1
-0.00147178 -0.15936542 0.21031743 0.99218750 5
0.00289403 -0.18066408 0.19234717 0.98681641 2
0.04765034 -0.20535782 0.26981097 1.00000000 3
-0.05548291 -0.12597656 0.16503906 0.98535156 2
-0.02832031 -0.12402344 0.19433594 0.99902344 1
-0.14355469 0.06738281 0.14981703 0.97705078 2
-0.13964845 0.10459596 0.13028902 0.96630859 3
-0.10253906 0.07139166 0.15332031 0.98876953 2
-0.16699219 0.10644531 0.11816407 0.95605469 1
-0.11550992 -0.12788467 0.14550783 0.98144531 3
-0.19824220 0.07324219 0.27026644 0.97216797 2
-0.20410156 0.08300781 0.27246094 0.96923828 1
-0.26269531 0.11035157 0.18742640 0.96044922 2
-0.26770204 0.09082031 0.18847655 0.97167969 2
-0.22558594 -0.09472656 0.18379439 0.96289062 2
-0.24121092 -0.10335607 0.15609045 0.97607422 2
-0.27441406 -0.11035156 0.18847656 0.96533203 1
-0.27441406 0.05175781 0.11896062 0.97509766 2
-0.25327122 0.05371094 0.08886719 0.98779297 2
-0.27441406 0.00878906 0.12597656 0.95849609 1
-0.28417969 0.02441406 0.14355469 0.95898438 1
-0.29199219 0.10614631 0.15791550 0.97900391 3
-0.26269531 0.08886719 0.12402344 0.95751953 1
-0.25488281 0.04344049 0.06347656 0.97998047 2
-0.23971239 0.09472656 0.05175781 0.96191406 2
-0.25488281 0.01660156 0.07910156 0.96142578 1
-0.14941406 -0.08300781 0.45996091 0.96044922 1
-0.13964844 -0.09667969 0.45605469 0.95019531 1
0.14550781 -0.04565054 0.30761719 0.96142578 2
-0.15136719 0.02636719 0.16308594 0.99609375 1
-0.14160156 -0.01297147 0.17178805 0.95849609 3
-0.28417969 -0.02246094 0.14160156 0.95312500 1
-0.26612476 -0.02050781 0.22914287 0.99316406 3
-0.29199219 -0.00878906 0.19824219 0.98291016 1
-0.27246094 -0.01269531 0.17089842 0.97509766 1
-0.25097656 -0.02441406 0.19238281 0.96337891 1
-0.20019531 -0.04394531 0.16503906 0.96875000 1
-0.22945145 -0.05566407 0.19058669 0.97949219 3
-0.22167969 -0.03222656 0.17285156 0.98095703 1
-0.25097656 -0.06054687 0.23730469 0.96289062 2
-0.25396967 -0.10253906 0.22363281 0.99804688 2
-0.24121094 0.09261496 0.21949193 1.00000000 3
-0.23925781 0.09082031 0.15179071 0.97363281 2
-0.27441406 -0.01660156 0.12402344 0.95507812 1
-0.26141027 -0.00488281 0.09472656 0.97949219 2
-0.26464844 -0.02832031 0.10449219 0.98681641 1
-0.26464844 0.02050781 0.10449219 0.98388672 1
-0.17089844 -0.01269531 0.16699219 0.98193359 1
-0.25878906 -0.00683594 0.14550781 0.97753906 1
-0.24316406 0.00534841 0.17480467 0.97558594 2
-0.24707030 -0.05566406 0.09472656 0.99462891 1
-0.27246094 -0.05175781 0.12077747 0.98193359 2
-0.26074219 -0.08886719 0.12978028 0.97998047 2
-0.30566406 -0.02636719 0.16712609 0.98583984 2
-0.30371094 -0.05880005 0.15332031 0.96679688 2
0.07149471 -0.08105469 0.27266657 0.97656250 2
0.06933594 -0.05371094 0.22968802 0.98681641 2
0.03808594 -0.07128907 0.24121092 0.97900391 1
0.13964844 -0.07823750 0.30089375 0.97363281 2
0.09863281 -0.06152344 0.26660156 0.98242188 1
0.11553178 -0.10058594 0.31084430 0.97509766 2
-0.00772896 -0.07693709 0.24154156 0.97558594 4
0.04199219 -0.08300781 0.28613281 0.97509766 1
0.06738281 -0.13251309 0.20087248 0.97705078 2
0.04662462 -0.09667969 0.17675783 0.96435547 2
0.09467927 -0.19578105 0.22167969 0.98583984 3
0.10644531 -0.17089844 0.23535156 0.96386719 1
0.05175781 -0.16308594 0.18477185 0.99414062 2
-0.01855469 0.09863281 0.49902344 0.95898438 1
0.02028802 -0.14355467 0.13849995 0.97558594 3
-0.00878906 -0.15722656 0.13769531 0.97021484 1
0.02634904 -0.18066406 0.18144095 0.97509766 4
0.05175781 -0.22363281 0.24316406 0.95751953 1
0.18261719 0.13574219 0.43066406 0.95166016 1
0.04589844 -0.08105469 0.17285156 0.96142578 1
0.03613281 -0.09912715 0.14746094 0.97363281 2
0.03027344 -0.12011719 0.10449219 0.96728516 1
0.02201063 0.00292969 0.25488281 0.97509766 2
0.06688711 -0.01269531 0.30121124 0.98242188 3
-0.01156341 -0.01642519 0.26214516 0.97314453 6
0.07910156 -0.04003906 0.35643539 0.98828125 2
0.03754769 -0.02832031 0.31028581 0.97167969 3
0.13213365 -0.01855469 0.32519531 0.98095703 2
0.09551390 -0.00683594 0.28417969 0.95751953 2
-0.10253906 -0.07910156 0.17525905 0.97802734 2
-0.08686948 -0.06347656 0.18742199 0.97656250 3
-0.14603853 -0.05566406 0.16894531 0.98193359 2
-0.09756549 -0.04394531 0.18847656 0.96435547 2
-0.19238281 -0.06542969 0.16894531 0.95654297 1
-0.05914183 -0.04208683 0.21777344 0.97509766 3
-0.05566407 -0.06928290 0.20795476 0.95703125 2
-0.01865283 -0.04785157 0.25683594 0.97216797 2
-0.04785157 -0.01464844 0.22103392 0.97412109 2
0.04980469 -0.07128906 0.21191406 0.95800781 1
0.05957032 -0.09277344 0.19433594 0.95214844 1
-0.05738588 -0.09660899 0.19211294 0.99414062 4
-0.08496094 -0.11230469 0.15917969 0.96972656 1
0.02803236 -0.07885250 0.22558594 0.96777344 3
0.05175781 -0.01444425 0.20585050 0.98095703 2
0.07714844 -0.02050781 0.23535155 0.95849609 1
0.05593301 -0.24121095 0.10644531 0.98486328 2
0.09472656 -0.24681044 0.10555679 0.97070312 3
0.09082031 -0.29003906 0.13301060 0.97460938 2
0.05418558 -0.28417969 0.13574219 0.96582031 2
0.05175781 -0.20384446 0.16699219 0.99316406 2
0.04589844 -0.22547734 0.13361709 0.96923828 3
0.03808593 -0.25788924 0.19421518 0.96875000 3
0.08300781 -0.20152679 0.18452615 0.98535156 3
0.07143717 -0.25488281 0.21191406 1.00000000 2
0.04781610 0.11245155 0.28797460 0.98486328 3
0.01660156 0.11621094 0.26855469 0.96582031 1
0.07324219 0.13239089 0.30596679 0.96484375 3
0.04980469 0.12597656 0.34277344 0.95507812 1
0.03027344 0.10839844 0.31542969 0.96093750 1
0.01464844 0.18066406 0.17285156 0.97363281 1
0.00878906 0.13769531 0.18652344 0.97851562 1
0.00488281 0.14746094 0.22558594 0.95947266 1
0.11008659 0.16842900 0.20534720 0.97265625 5
0.09277344 0.20800781 0.18783672 0.98046875 2
0.10058594 0.17675781 0.25947002 0.98046875 2
0.05065134 0.20773928 0.17332578 0.98339844 6
0.08090651 0.21777342 0.24768478 0.97119141 3
0.03713181 0.21916726 0.22761984 0.97851562 4
-0.06152344 0.04199219 0.32538623 0.96533203 2
-0.05976283 0.03613281 0.41327843 0.97412109 2
-0.05371094 0.03613281 0.36563945 0.96582031 2
-0.08320257 0.00292969 0.40288222 0.97119141 3
-0.06738281 0.01660156 0.40722656 0.99023438 1
-0.06347656 0.02246094 0.36230469 0.98242188 1
-0.07128906 0.00878906 0.35839844 0.99023438 1
-0.01269531 0.18457033 0.25878906 0.97558594 1
-0.00683594 0.14392094 0.25683594 0.97412109 2
0.02441406 0.11621094 0.23730469 0.98291016 1
-0.03170638 0.16738969 0.28808597 0.99121094 3
0.05175781 0.20800781 0.30397403 0.97949219 2
0.01302543 0.20996095 0.27917558 0.98339844 3
0.00371461 0.19042969 0.21793774 1.00000000 3
-0.01269531 0.18847656 0.31542969 0.95703125 1
0.07476924 0.17292002 0.31387159 0.98339844 4
0.01825448 0.18977082 0.34632102 0.98242188 3
0.04394531 0.16113281 0.35806969 0.97509766 2
-0.12207032 -0.05001540 0.42871094 0.96777344 2
-0.14355469 -0.00878906 0.38183594 0.97705078 1
-0.13995603 -0.03839351 0.43066406 0.99023438 2
-0.12792969 -0.01855469 0.39550781 0.98095703 1
-0.16113281 -0.03222656 0.42480469 0.97705078 1
-0.17675781 -0.05957031 0.46191406 0.96337891 1
-0.15722656 -0.06738281 0.46582031 0.95996094 1
-0.13964844 -0.07910156 0.46582028 1.00000000 1
-0.03027344 0.07240061 0.44696105 0.96728516 3
-0.06738281 0.09667969 0.40817729 0.95947266 2
-0.04394531 0.08886719 0.45353326 0.97070312 2
-0.03417969 0.07324219 0.40136719 0.96289062 1
-0.01269531 0.06347656 0.43847653 0.96044922 1
-0.01269531 0.05566406 0.48535156 0.98925781 1
-0.02441406 0.07519531 0.49511719 0.98144531 1
0.00457902 0.11396175 0.43716550 0.97558594 4
0.00292969 0.11230469 0.49511719 0.96435547 1
0.03027344 0.08300781 0.46777344 0.95654297 1
0.02226904 0.10253907 0.47949219 0.96972656 2
-0.10449219 0.07128906 0.41503906 0.98437500 1
-0.12174232 0.05371094 0.40332031 0.98242188 2
-0.12622075 0.06347656 0.35885379 0.97216797 3
-0.11621094 0.08105469 0.36425781 0.95214844 1
-0.11185464 0.07865153 0.32519531 0.96533203 2
-0.13574219 0.04589844 0.35253906 0.97753906 1
0.01269531 0.09708488 0.33496094 0.99365234 2
0.00292969 0.10839844 0.29003906 0.99121094 1
0.00097656 0.09863281 0.38720840 0.97558594 2
0.02441406 0.11425781 0.36621094 0.97949219 1
-0.02441406 0.08300781 0.31347656 0.97119141 1
-0.00488281 0.08496094 0.34667969 0.97314453 1
-0.01264307 0.16894531 0.37207034 0.99267578 2
0.01464844 0.14465486 0.38183594 0.97607422 2
-0.03417969 0.13769531 0.39438668 0.97460938 2
-0.03797833 0.16883773 0.33844027 0.99121094 3
-0.05072875 0.14941406 0.30566406 0.96435547 2
-0.06542969 0.13183594 0.31621602 0.95898438 2
-0.05761719 0.14746094 0.35170609 0.96142578 2
-0.03613281 0.11816406 0.29394531 0.97558594 1
-0.00878906 0.11621094 0.28808594 0.95605469 1
-0.16113281 -0.04394531 0.35336587 0.97753906 2
-0.18261720 -0.06948636 0.32219046 0.95410156 3
-0.18384551 -0.05175781 0.29341415 0.97558594 3
-0.15527344 -0.01464844 0.28417969 0.97998047 1
-0.17089844 -0.02246094 0.31542966 0.96240234 1
-0.18066406 -0.07714844 0.23752733 0.99707031 2
-0.16503906 -0.04394531 0.26497847 0.96777344 2
-0.20410156 -0.10644532 0.29721251 0.97851562 2
-0.10644531 0.00625650 0.44100910 0.96435547 2
-0.08691406 -0.01464844 0.48397249 0.96923828 2
-0.12179121 0.00878906 0.48339844 0.96582031 2
-0.15722656 -0.02246094 0.37011719 0.99169922 1
-0.16113280 -0.00097656 0.33192810 0.96533203 2
-0.15136719 0.01660156 0.34277344 0.96044922 1
-0.14550781 0.00683594 0.29980469 0.95410156 1
-0.09277344 -0.03613281 0.33886719 0.97265625 1
-0.08886719 -0.02441406 0.30371094 0.95458984 1
-0.08300781 -0.00683594 0.31347653 0.97607422 1
-0.12934305 -0.06152343 0.35780299 0.96435547 3
-0.10253907 -0.06152344 0.32324219 0.96386719 1
-0.25683594 0.08105469 0.20996092 0.96972656 1
-0.25683594 0.05957032 0.22167969 0.98779297 1
0.14355469 0.13769531 0.43066406 0.98974609 1
-0.16142221 -0.08693223 0.33300778 0.96777344 3
-0.13574219 -0.09667969 0.32714844 0.98632812 1
-0.18066406 -0.12792969 0.31152344 1.00000000 1
-0.14746094 -0.13574219 0.30371094 0.98583984 1
-0.11035156 -0.07519531 0.27050781 0.98535156 1
-0.11425781 -0.09082031 0.30110198 0.96777344 2
-0.12057799 -0.11230469 0.24270324 0.97119141 2
-0.09863281 -0.04589844 0.29003906 0.98242188 1
-0.12207031 -0.02636719 0.27636719 0.98242188 1
-0.13378906 -0.05566406 0.25781250 0.95361328 2
-0.23144533 0.10058594 0.23339842 0.95947266 1
-0.23730470 0.09667969 0.21972658 0.97363281 1
-0.26855466 0.04199219 0.21815290 0.96093750 2
0.00449140 0.07168049 0.43261719 0.98974609 2
0.01464844 0.09173292 0.43066406 0.96191406 2
0.00683594 0.04785156 0.47167969 0.95654297 1
-0.17480469 -0.04199219 0.41113281 0.98242188 1
-0.18652344 -0.08691406 0.44042966 0.97705078 1
-0.12402344 -0.06933594 0.41751498 0.96923828 2
-0.13964844 -0.07910156 0.40560129 0.98486328 2
-0.11621094 -0.04394531 0.37597656 0.95898438 1
-0.11035156 -0.02441406 0.38769531 0.97851562 1
-0.15332031 -0.10599820 0.44433594 1.00000000 2
-0.25097656 0.13031851 0.23339844 1.00000000 2
-0.24230805 0.12207032 0.24511717 0.96777344 2
-0.06933594 0.00683594 0.44828579 0.97998047 2
-0.06591056 0.02441406 0.45410159 0.97900391 2
-0.08105469 0.04003907 0.45800781 0.97509766 1
-0.07910156 0.05371094 0.42675781 0.96337891 1
-0.11738648 0.04121460 0.44628909 0.96875000 2
-0.10058594 0.05175781 0.45605469 1.00000000 1
-0.12792969 0.03027344 0.39746094 0.95458984 1
-0.11621094 0.02636719 0.49121091 0.95849609 1
-0.06152344 0.09277344 0.30761719 0.95898438 1
-0.04980469 0.10253907 0.30175781 0.96093750 1
-0.02050781 0.07324219 0.35449219 0.98144531 1
-0.04394531 0.06152344 0.32324219 0.98437500 1
-0.05761719 0.12207032 0.40491188 0.98095703 2
-0.07519531 0.12792969 0.36035156 0.99121094 1
-0.09082031 0.10449219 0.32629308 0.98095703 2
0.00878906 0.05566406 0.47558594 0.95263672 1
-0.15722655 -0.07217978 0.40190995 0.96875000 3
-0.03790483 0.11148112 0.45278221 0.97558594 4
-0.01855469 0.12402344 0.44628909 0.97021484 1
-0.07910156 0.00683594 0.31738278 0.95019531 1
-0.10839843 0.01074219 0.29785156 0.96875000 1
-0.13378906 0.03613281 0.31347653 0.97607422 1
-0.11621094 0.00174089 0.39474347 0.95410156 2
-0.13769531 0.01660156 0.38183597 0.99267578 1
-0.14355469 0.03027344 0.34863281 0.96826172 1
-0.11425781 -0.00488281 0.29003906 0.98876953 1
-0.08691407 0.05957032 0.30958083 0.98632812 2
-0.07910156 0.07128906 0.31152344 0.95507812 1
-0.10156250 0.09179688 0.32714844 0.96875000 2
-0.06738281 0.06738281 0.41699219 0.95654297 1
-0.08886718 0.08496094 0.40527344 0.95361328 1
-0.04574103 0.04980469 0.36425781 0.96337891 2
-0.10370974 0.09589723 0.36621097 0.98828125 2
-0.07519531 0.01855469 0.32128906 0.97851562 1
-0.09472656 0.04785157 0.30761719 0.97167969 1
-0.01115681 0.00222043 0.21394508 0.98486328 4
0.02832031 0.00683594 0.20800781 0.96728516 1
0.10839843 -0.03151182 0.27122253 0.96826172 3
0.02886848 -0.05957032 0.30160472 0.99951172 3
0.08789492 -0.10058594 0.33102027 0.98339844 3
0.07519531 -0.07324219 0.34667969 0.98291016 1
0.13090418 0.14941405 0.34811819 0.97558594 3
0.12446987 0.12399553 0.36406717 0.99414062 5
0.12508248 0.05842448 0.31360096 0.97949219 5
0.11621094 0.08456777 0.30136466 0.96240234 2
0.12988281 0.18457031 0.40413937 0.96582031 2
0.19042970 0.09082031 0.37792969 0.99511719 1
0.20170474 0.11948668 0.36097574 0.97900391 5
0.19433594 0.08105469 0.29980469 0.98632812 1
0.18503045 0.11398940 0.28291434 0.96972656 5
0.19238281 0.18401182 0.40136719 0.99316406 2
0.19373731 0.14999889 0.34404519 0.97412109 4
0.20019531 0.15332031 0.41503906 0.95117188 1
0.16113280 0.16001716 0.34030029 0.97705078 3
0.15136719 0.12402344 0.27906942 0.98876953 2
0.12011719 0.11189217 0.28646117 0.99218750 3
0.16113280 0.19628905 0.39573190 0.97412109 2
0.15720896 0.07747252 0.22598900 0.96728516 4
0.12622401 0.08849806 0.22222528 1.00000000 4
0.09112595 0.07468943 0.22753905 0.99023438 3
0.15447187 0.00488281 0.25155231 0.96386719 3
0.16451417 0.04035083 0.23961493 0.98925781 4
0.08582938 0.04242143 0.23772725 0.97216797 6
0.10058594 0.01269531 0.24972644 0.98681641 2
0.12644877 -0.00441062 0.25513321 0.98437500 3
0.10803217 -0.05371094 0.20019531 0.97412109 2
-0.11425781 0.25878906 0.10913274 0.98193359 2
-0.13346463 0.22558595 0.14160156 0.99755859 2
-0.12145930 0.22753905 0.11035156 0.97509766 2
-0.11230469 0.19433594 0.12207031 0.96484375 1
-0.12792969 0.19042969 0.13964844 0.98828125 1
-0.14126158 0.23535156 0.19085301 0.98486328 3
-0.08882611 0.26855472 0.04088392 0.98046875 3
-0.05761719 0.28795213 -0.01884783 0.99365234 4
-0.07592916 0.24984141 -0.02636719 0.97900391 3
-0.10644532 0.24902345 0.04210690 0.99658203 3
-0.07128906 0.26327190 0.10657528 0.97998047 3
-0.06542969 0.17436585 0.12353041 0.98681641 3
-0.10386162 0.18652344 0.09863281 0.96679688 2
-0.04940400 0.16113281 0.16014367 0.95751953 3
-0.11230467 0.21916677 0.06712722 0.96826172 3
-0.14746095 0.20268410 0.24917504 0.98583984 4
-0.09877372 0.19004133 0.24445470 0.97949219 4
-0.12988281 0.17285156 0.26660156 0.98437500 1
-0.16699220 0.15917969 0.17835139 0.97900391 2
-0.15797354 0.15332031 0.28808594 0.96923828 2
-0.12597656 0.13964844 0.25488281 1.00000000 1
-0.15366380 0.10644531 0.24672684 0.97412109 3
-0.09268804 0.13964844 0.24121095 0.98632812 2
-0.07910156 0.16699219 0.25683594 0.98339844 1
-0.10644531 0.15136719 0.23535156 0.98535156 1
-0.10679932 0.13769531 0.20605469 0.96191406 2
-0.07989561 0.10058594 0.22753906 0.96240234 2
-0.06296311 0.13769531 0.27636719 0.97656250 2
-0.10449219 0.16547352 0.15723403 0.98974609 3
-0.12597655 0.15641175 0.17805989 0.97851562 3
-0.03883929 0.22782277 0.16673179 0.98291016 5
-0.07128906 0.21808997 0.21086417 0.97656250 3
-0.11621094 0.22558594 0.21972656 0.95996094 1
-0.09216460 0.25041294 0.17508200 0.96972656 4
-0.20410158 0.16102710 0.28613281 0.99609375 2
-0.18457031 0.13574219 0.30202571 0.96044922 2
-0.25097656 0.15245566 0.26481056 0.97753906 3
-0.22167969 0.16894531 0.25488281 0.96142578 1
-0.23144533 0.14355469 0.29785156 0.98730469 1
-0.13183594 0.12323909 0.22753906 0.96484375 2
-0.14822920 0.13398929 0.19648930 0.96777344 3
-0.18961647 0.13769531 0.19824219 0.96533203 2
-0.17089844 0.11425781 0.21582031 0.96533203 1
-0.19433594 0.18919446 0.24121092 0.98730469 2
-0.16699219 0.21355852 0.21972656 0.98486328 2
-0.17675781 0.18066406 0.27246094 0.96337891 1
-0.17285156 0.19238281 0.19042969 0.96972656 1
-0.19824219 0.16894531 0.21191406 0.96679688 1
-0.22167969 0.14785278 0.22558594 0.97607422 2
-0.17480469 0.09082031 0.26074219 0.97558594 1
-0.14941406 0.12338021 0.27636722 0.96630859 2
-0.19628906 0.08886718 0.30175781 0.99414062 1
-0.17285156 0.10644531 0.29003906 0.96777344 1
-0.19216208 0.09666664 0.22949220 0.97607422 3
-0.21191406 0.11816406 0.20996094 0.98291016 1
-0.05718150 0.07910156 0.27832031 1.00000000 2
-0.03808594 0.10062886 0.29785159 0.98046875 2
-0.08105469 0.11425781 0.25683594 0.98291016 1
-0.03046123 0.02364410 0.27441403 0.97802734 4
-0.05957031 0.06152344 0.24707031 0.96679688 1
-0.00855458 0.06919814 0.32094583 1.00000000 4
-0.03027344 0.16699219 0.19238281 0.98144531 1
-0.04394531 0.14160156 0.18457031 0.96728516 1
-0.01074219 0.15527344 0.23925781 0.97900391 1
-0.05182074 0.18841362 0.24084774 1.00000000 4
-0.03027344 0.19042969 0.21191406 0.96337891 1
-0.06933594 0.12597656 0.19252856 0.98876953 2
-0.09082031 0.12402344 0.21386719 0.95507812 1
-0.03027344 0.11230469 0.20019531 0.97607422 1
0.04199219 0.08300781 0.28613281 0.98242188 1
0.02050781 0.08300781 0.30957031 0.97753906 1
0.02050781 0.04980469 0.34325850 0.96093750 2
0.01464844 0.11621094 0.26269531 0.97314453 1
-0.03222656 0.15332031 0.26660156 0.97070312 1
-0.00878906 0.07324219 0.21814568 0.99023438 2
0.01074219 0.09668785 0.23661843 0.98046875 3
0.02165234 0.03613282 0.24372943 0.98730469 4
0.04002191 0.06152344 0.26074219 0.97216797 2
-0.03867988 0.05958591 0.22211792 0.98974609 4
0.10783226 -0.01798851 0.35691261 0.98632812 5
0.08457103 -0.01535539 0.37434047 0.98339844 3
0.09417725 0.00292969 0.31171679 0.98486328 3
0.06933594 -0.01613704 0.32128906 0.98974609 2
0.16699220 -0.00097656 0.37869397 0.97460938 2
0.12988281 0.00097656 0.34667969 0.98095703 1
0.05761719 0.01269531 0.27636719 0.98876953 1
0.07099936 0.04199219 0.28810987 0.99658203 4
0.06933594 0.06542969 0.30957031 0.98046875 1
0.10449219 0.03405995 0.31738281 0.98291016 2
0.00683594 -0.00097656 0.30694577 0.96435547 2
0.03027344 -0.00488281 0.28416920 0.98632812 2
-0.00878906 0.01855469 0.24902342 0.96582031 1
0.04563383 -0.01269531 0.34122133 0.99609375 3
-0.02832031 0.04394531 0.30371094 0.98095703 1
0.00419810 0.02246094 0.33105469 0.98925781 2
0.04812678 0.04198450 0.37011716 0.99267578 3
0.07361290 0.00683594 0.39160153 0.97167969 2
0.03808594 0.01074219 0.36035156 0.95410156 1
0.11230469 0.03783211 0.43445578 1.00000000 3
0.12597656 0.05592126 0.36400059 0.97705078 2
0.09667969 0.05761719 0.33496094 0.97753906 1
0.10253906 0.05566406 0.38378906 0.96875000 1
0.07324219 0.05761719 0.35644531 0.97607422 1
0.08105469 0.03808594 0.39941406 0.95898438 1
0.15984400 0.06152344 0.39355469 0.97216797 2
0.13582224 0.03062009 0.34935942 0.96289062 4
0.17285156 0.03372948 0.37988281 0.97021484 2
-0.21904084 0.15917969 0.25683594 1.00000000 2
-0.20083438 0.15527344 0.28027344 0.97851562 2
-0.23144531 0.06738281 0.18261719 0.95361328 1
-0.22753905 0.13378906 0.29003906 0.96826172 1
-0.00292969 0.06152344 0.45410156 0.99121094 1
-0.17675783 0.09489785 0.25968909 0.97412109 3
-0.18524665 0.10253907 0.23339845 0.96972656 2
0.11230469 -0.02636719 0.30497310 0.97265625 2
0.10839844 -0.03613281 0.33886719 0.95898438 1
-0.24511720 0.02246094 0.18837869 1.00000000 2
-0.20605469 0.11885345 0.21777344 0.95751953 2
-0.07324219 0.00292969 0.46386719 0.96191406 1
-0.27832031 0.03222656 0.15527344 0.95703125 1
0.08105469 -0.08105469 0.30761719 0.96044922 1
-0.29199219 0.04394531 0.18066406 0.96777344 1
-0.27636719 0.05371094 0.14160156 0.96337891 1
-0.26660156 0.07714844 0.14746094 0.95507812 1
-0.10839843 0.02050781 0.48925784 0.97509766 1
0.19042970 0.15527344 0.41894531 1.00000000 1
0.02636719 0.05957031 0.46582031 0.96582031 1
0.09863281 -0.08496094 0.32910156 0.95800781 1
-0.17089844 -0.09472656 0.44238278 0.96044922 1
0.13574219 0.15722656 0.42089844 0.99218750 1
-0.20214844 0.09667969 0.29394531 0.95849609 1
0.14160156 0.17675781 0.40917969 0.97509766 1
0.09667969 -0.17285158 0.25878906 0.95312500 1
-0.28808594 -0.08691406 0.17089844 0.96582031 1
0.15332031 0.04992477 0.39734083 0.96044922 2
-0.26074219 -0.06347656 0.22363281 0.99267578 1
-0.13574219 -0.12207031 0.27441406 0.98144531 1
0.09667969 -0.26660156 0.19238281 0.99560547 1
0.16308594 0.03027344 0.38531575 0.97167969 2
0.16113281 0.00683594 0.38574219 0.97558594 1
0.12597656 -0.00878906 0.40527344 0.95556641 1
-0.19042970 -0.09277344 0.26660156 0.95312500 1
-0.12597656 -0.12792969 0.27636719 1.00000000 1
-0.13574219 -0.11035156 0.25097656 0.96191406 1
0.11425781 0.00878906 0.42089844 0.95117188 1
0.05382317 -0.27441406 0.16503906 0.96923828 2
0.14550781 -0.00878906 0.39160153 0.97363281 1
0.14550781 -0.02050781 0.39160156 0.96972656 1
0.08496093 -0.17675781 0.27395269 0.96484375 2
0.06542969 -0.20605467 0.26660156 0.97070312 1
0.10644531 -0.28027344 0.15722656 0.96142578 1
0.07128906 -0.19042969 0.27832031 0.98535156 1
0.09082031 -0.06933594 0.34082031 0.95751953 1
-0.27246094 -0.06152344 0.14160156 0.98144531 1
-0.26905361 -0.08496093 0.14941406 0.96337891 2
-0.24902345 -0.09277344 0.16503906 0.96240234 1
-0.23535156 -0.05957032 0.19042969 0.98632812 1
-0.24707031 -0.04140377 0.18652344 0.96630859 2
-0.24707031 -0.05957031 0.16308594 0.95312500 1
-0.25683594 -0.03222656 0.16699219 0.97314453 1
0.05371094 -0.16699219 0.23809345 0.97119141 2
0.07519531 -0.18066406 0.21972658 0.96875000 1
0.05175781 -0.17285156 0.27050781 1.00000000 1
-0.24316406 0.07714844 0.16113281 0.98095703 1
-0.24707031 0.04589844 0.15775728 0.98193359 2
0.11035156 -0.25488281 0.14550781 0.95654297 1
0.10253906 -0.23925781 0.18652344 0.95947266 1
0.08496094 -0.23339842 0.15527344 0.99804688 1
0.11425781 -0.24121094 0.16503906 0.96582031 1
0.06738281 -0.25488281 0.13574219 0.97998047 1
0.09863281 -0.07910156 0.29199219 0.95849609 1
0.07519531 -0.04003906 0.32519531 0.98193359 1
0.08886719 -0.04980468 0.29589844 0.97216797 1
-0.14550781 -0.07324219 0.29394531 0.98876953 1
-0.12402344 -0.09472656 0.29199219 0.95507812 1
-0.13769531 -0.06738281 0.26269531 0.95800781 1
-0.10058594 0.00097656 0.46191406 0.98974609 1
-0.00683594 0.11230469 0.46777344 0.99218750 1
-0.01269531 0.08950625 0.45019531 0.97851562 2
-0.13964844 -0.06738281 0.44433594 0.96435547 1
-0.15136719 -0.06347656 0.42089844 1.00000000 1
0.15917969 0.11816406 0.40830326 0.99462891 2
0.15917969 0.13964844 0.38574219 0.98144531 1
0.18652344 0.14160156 0.39160156 0.96679688 1
0.13964844 0.16699219 0.38964844 0.99511719 1
0.13378906 0.14550781 0.39746091 0.99511719 1
0.14160156 0.12988281 0.41113281 0.96728516 1
-0.21386720 0.14550781 0.22949220 0.95947266 1
-0.18693881 0.13358137 0.25488281 0.97314453 3
0.10253906 0.02246094 0.36621094 0.95556641 1
0.08888672 0.03222657 0.39791766 0.96484375 3
0.08300781 0.01074219 0.38769531 1.00000000 1
0.09863281 -0.00683594 0.37792969 0.95117188 1
-0.02441406 0.10253906 0.47167969 0.99023438 1
-0.18652344 0.13378906 0.29785156 0.96923828 1
-0.17285156 0.11230469 0.28222656 0.99707031 1
0.08025029 -0.16113281 0.22753906 0.99072266 2
0.08105469 -0.15136719 0.24707031 0.95263672 1
0.12402344 0.04980469 0.37207031 0.99853516 1
0.00683594 0.10644531 0.45410156 0.96044922 1
0.11816406 -0.04394531 0.29003906 0.99121094 1
0.11816406 -0.06738281 0.29003906 0.95703125 1
0.05761719 -0.19042969 0.21972656 0.95800781 1
0.10058594 0.04980469 0.38378906 1.00000000 1
0.13574219 0.00683594 0.36230469 0.98242188 1
-0.13769531 -0.08105469 0.43261719 0.95654297 1
-0.17871092 -0.08105469 0.30371094 0.96533203 1
-0.13964844 -0.10449219 0.30932951 1.00000000 2
-0.27351320 -0.03613281 0.14941406 0.99072266 2
0.18066406 0.12597656 0.40527344 0.96923828 1
-0.17480469 -0.06542969 0.28613281 0.95214844 1
0.09082031 -0.25292969 0.13183594 1.00000000 1
-0.03346302 0.27365407 0.07121620 0.98339844 6
-0.01464844 0.24511719 0.08987093 0.97705078 2
-0.01305938 0.29003906 -0.00329376 0.97216797 2
-0.05957031 0.25292969 0.13574219 0.96093750 1
-0.11425781 -0.09079260 -0.40136719 0.99755859 2
-0.12402344 -0.07128906 -0.45019534 0.99462891 1
-0.11035156 -0.09667969 -0.37011719 0.97021484 1
-0.09277344 -0.12402344 -0.25683594 0.96386719 1
-0.10253906 -0.14355469 -0.16113281 0.97314453 1
-0.10839843 -0.13574219 -0.18847656 0.96972656 1
-0.10058594 -0.10839844 -0.29764849 0.98535156 2
0.08886719 0.23730469 -0.19042969 0.95849609 1
0.09667969 0.24461447 -0.17285156 0.98437500 2
-0.11230468 0.16677701 -0.29785156 0.95947266 2
-0.11816406 0.14355469 -0.33691406 0.95703125 1
-0.14550781 0.04199219 -0.44042966 0.97021484 1
-0.12207031 0.12011719 -0.37011719 0.95654297 1
-0.13574219 0.02246094 -0.45996091 0.95996094 1
-0.13964844 0.00097656 -0.48925784 0.97607422 1
-0.14160156 -0.05761719 -0.46386719 0.97851562 1
-0.13378906 -0.04394531 -0.48144531 0.97607422 1
-0.14550781 -0.04394531 -0.47558594 0.96044922 1
-0.14941406 -0.02832031 -0.48339841 0.97119141 1
-0.12597656 -0.02636719 -0.49121091 0.96386719 1
-0.07044382 0.24316406 -0.07128906 0.97265625 2
-0.08877835 0.20605467 -0.21191406 0.97460938 2
0.04785156 0.23058024 -0.19433595 0.96191406 2
0.06738281 0.23144531 -0.17871094 0.97167969 1
-0.05080637 0.28104064 -0.07159729 0.97558594 4
-0.10532927 0.22942238 -0.13378906 0.97656250 3
-0.04589844 -0.15680778 -0.09082031 0.99365234 2
-0.05566406 -0.14941406 -0.12792969 0.97216797 1
-0.04003907 -0.16113281 -0.05761719 0.97900391 1
-0.03613281 -0.15332031 -0.02050781 0.98242188 1
0.02246094 -0.13574219 0.07445374 0.97265625 2
-0.01634701 -0.14338998 0.01855469 0.97216797 3
-0.28417969 0.08496094 0.17089842 0.97802734 1
-0.14550781 0.17949603 0.15917969 0.96191406 2
-0.06891295 0.22096644 -0.17089842 0.96923828 3
-0.06152344 0.23339844 -0.14160156 0.97412109 1
0.21837927 0.17675783 -0.16308594 0.99169922 2
-0.20605469 0.16894531 -0.18066406 0.95410156 1
-0.22288083 -0.08300781 -0.20240389 0.97070312 4
0.04003907 0.21777344 -0.20214844 0.97753906 1
-0.01122054 0.21582033 -0.21777344 0.97167969 2
0.02441406 0.21045284 -0.21777345 0.98974609 2
-0.07910156 0.21245800 -0.19238283 0.98339844 2
-0.11525636 0.21582031 -0.16113281 0.97216797 2
0.25142011 -0.07714843 -0.12056074 0.96728516 2
0.27441406 0.15527344 0.00878906 0.96484375 1
0.08496093 -0.19042969 0.00878906 0.96484375 1
-0.19238281 -0.11621094 -0.18066406 0.95800781 1
-0.00488281 -0.15446992 -0.12597656 0.98730469 2
-0.08496094 0.15722656 0.10253906 0.98339844 1
-0.02636719 0.17688099 -0.30371094 0.98193359 2
0.00292969 0.19042969 0.11621094 0.97070312 1
-0.03222656 0.07714844 0.13769531 0.98974609 1
0.16308595 0.23339842 -0.11621094 0.99804688 1
0.21013555 0.22010309 -0.10453043 0.97509766 4
0.18066406 0.20752658 -0.17237033 0.98046875 2
-0.09472656 0.02832031 -0.47363278 0.96142578 1
-0.07714844 0.01269531 -0.48535156 0.96386719 1
0.06347656 -0.08886719 0.22167969 0.97119141 1
0.15917969 0.22363281 0.00878906 0.96142578 1
-0.07799422 0.10839844 0.12708390 0.96240234 2
-0.15917969 0.04199219 -0.43457031 0.99121094 1
-0.05705770 0.21191408 -0.21582030 0.96386719 2
-0.19433594 0.12402344 -0.29003906 0.95019531 1
-0.22167969 0.01855469 -0.37011719 0.96044922 1
-0.05566406 -0.07324219 -0.42480472 0.96923828 1
0.17285156 0.19628906 0.11230469 0.98681641 1
0.13964844 0.21191405 0.10253906 0.99169922 1
-0.25292969 -0.00292969 0.07324219 0.95800781 1
-0.21386719 0.07519531 0.23730469 1.00000000 1
-0.29394531 -0.09277344 0.16113281 0.97558594 1
0.04003906 -0.11621094 0.16699219 0.95312500 1
0.10449219 -0.01855469 0.34667969 0.99316406 1
0.05957031 0.00488281 0.24316406 0.96533203 1
-0.11230469 -0.09863281 0.16503906 0.96875000 1
-0.14746094 -0.08886719 0.22753906 0.98242188 1
-0.09863282 0.03417969 0.49642199 0.99658203 2
-0.01269531 0.13574219 0.21386719 0.99072266 1
0.04589844 0.06347656 0.33105469 0.95654297 1
-0.05957032 0.09863281 0.20410156 0.98339844 1
-0.02636719 0.08105469 0.47363278 0.96386719 1
0.09082031 -0.19628906 0.23535156 0.99365234 1
0.06738281 -0.21386719 0.24902345 0.95800781 1
-0.06738281 0.23925781 -0.10644532 0.97314453 1
-0.12011719 0.20800781 -0.18652342 0.95361328 1
