ply
format ascii 1.0
comment algorithm Barycentric Ridge Graph Triangle Mesh
comment source_graph BRG
element vertex 1542
property float x
property float y
property float z
element edge 352
property int vertex1
property int vertex2
element face 371
property list uchar int vertex_indices
end_header
0.29261032 0.10949533 0.01587396
0.29117170 0.10664450 -0.02722863
0.27504504 0.15178689 -0.03481182
0.27450785 0.15453322 0.00848241
0.25090829 0.14540164 0.04376193
0.26549125 0.10425701 0.05424520
0.28851050 0.05958170 0.05373333
0.30171862 0.05910552 0.01555920
0.29980457 0.05885257 -0.02480330
0.28989175 0.10416862 -0.07196001
0.27133965 0.14753112 -0.08044983
0.27923799 0.00680997 -0.14478642
0.29369077 0.05453797 -0.11208906
0.28336257 0.05248125 -0.14533819
0.27215597 0.09792798 -0.14722332
0.28353494 0.10013605 -0.11461829
0.24241236 0.18413489 -0.08991577
0.24673532 0.18799773 -0.04597298
0.25041282 0.14083053 -0.15601383
0.26266241 0.14265063 -0.12227800
0.23305173 0.17948903 -0.13100921
0.21873543 0.17692314 -0.16259371
0.21078937 0.21779107 -0.05953694
0.21013790 0.22028047 -0.10477331
0.24724194 0.19258831 -0.00407312
0.21188238 0.22275499 -0.01818935
0.19602978 0.20749170 0.01800299
0.23412573 0.18424353 0.03338639
0.28809932 -0.03743065 -0.03293438
0.30264834 0.00702320 0.00789471
0.29526004 -0.04307385 -0.00161978
0.29912364 0.00936173 -0.02796621
0.28839114 0.00378141 0.03913992
0.27738801 -0.04393484 0.02506138
0.27578703 -0.08828235 -0.00853174
0.26840767 -0.08100251 -0.03885440
0.26353246 -0.08484129 0.01299113
0.23767881 -0.11870885 0.00182345
0.23801282 -0.11857906 -0.04615049
0.24338835 -0.12561060 -0.01266275
0.28455481 -0.03562305 -0.07404345
0.26320910 -0.07832512 -0.07803825
-0.06844570 0.22167848 -0.17109284
-0.03957712 0.25583398 -0.19387852
-0.04785594 0.23410678 -0.20743988
0.23672564 -0.07531975 -0.15437457
0.25187907 -0.07777737 -0.12070573
0.22176497 -0.11473469 -0.12874956
0.29745004 0.00952897 -0.06999947
0.27528489 -0.03701535 -0.11607999
0.26249936 -0.03614753 -0.14901175
0.28986505 0.00732879 -0.11217712
0.29978806 0.05792795 -0.06952071
0.14797202 -0.16824059 -0.06631895
0.09317789 -0.17559744 -0.04496520
0.09191906 -0.17675775 -0.07775648
0.14936824 -0.15569836 -0.00789383
0.14860314 -0.16778953 -0.03482428
0.09975484 -0.17623988 -0.00926738
0.04845088 -0.15540482 -0.00597495
0.03851074 -0.17551996 -0.08580319
0.03949483 -0.17627108 -0.04930326
0.14314568 -0.16457711 -0.10662143
0.08817545 -0.17480467 -0.11762036
-0.05173935 -0.13793202 -0.19231097
-0.07689935 -0.13574220 -0.19142781
-0.06874384 -0.14261436 -0.16483301
0.07565825 -0.16694374 -0.15779105
0.02350610 -0.16441259 -0.16509537
0.06054452 -0.16050033 -0.18878953
0.19111001 -0.14268133 -0.09450711
0.19525950 -0.14386936 -0.05477298
0.13014910 -0.15842205 -0.14748512
0.11289760 -0.15284206 -0.18053162
0.17875047 -0.14092314 -0.13668154
0.16146873 -0.13545917 -0.17022444
0.23262930 -0.11511694 -0.08601031
0.20214279 -0.15575609 -0.02186308
0.19431807 -0.13682118 -0.00109024
0.05549410 0.22564296 0.01725544
0.04237790 0.21454701 0.03645613
0.02303126 0.25443456 0.01034611
0.01818713 0.22351438 0.07422457
0.00223408 0.19098298 0.11503504
0.03757597 0.21018389 0.06045454
0.04783522 0.22274564 0.03397372
0.02745919 0.02324579 0.15722656
0.02246094 0.01220411 0.15726605
0.04100342 -0.01114154 0.16683681
0.03263830 -0.02287268 0.16308594
0.04394531 -0.05814260 0.16477484
0.07641745 -0.03853423 0.19232759
0.05284842 -0.04890601 0.17108096
0.05781516 0.00785452 0.18808942
0.04718055 0.04680863 0.17683885
0.04844666 -0.20453794 0.06431818
0.04991000 -0.18043093 0.00586324
0.07029226 -0.20153281 0.02968104
0.03802859 -0.16338842 0.01108350
0.06992007 -0.16828619 -0.00108700
0.08512991 -0.18937594 0.00870664
0.02160920 -0.12597656 0.03674887
0.02949045 -0.13893870 0.01205986
0.02364677 -0.15153490 0.04013683
0.01328267 -0.13806345 0.01347871
-0.00657231 -0.15802345 -0.02795166
0.01699249 -0.15675209 -0.01483020
0.03222656 -0.14355469 0.01660156
0.03227475 -0.15119664 0.08778488
0.02441406 -0.13114052 0.07393762
0.05606969 -0.14016348 0.15005997
0.04535328 -0.18013327 0.10924537
0.03485059 -0.12534502 0.12342696
0.03027343 -0.12115419 0.10422358
-0.01380127 -0.14786254 -0.06098728
0.00612996 -0.15730152 -0.05749477
-0.02103369 -0.15339941 -0.09120241
0.00118095 -0.15817375 -0.08881006
-0.08642987 -0.15134501 -0.08476092
-0.12895803 -0.14206690 -0.08121702
-0.12399117 -0.14238617 -0.04516654
-0.07857982 -0.14209741 -0.00081158
-0.08237240 -0.15225498 -0.04771167
-0.12562069 -0.13771719 -0.00675540
-0.16040759 -0.11949533 -0.00260756
-0.16454245 -0.12348031 -0.04322015
-0.17154409 -0.12244836 -0.08012793
-0.09442537 -0.14926454 -0.12449002
-0.13729966 -0.13877836 -0.11862423
0.19770688 0.21071616 -0.14254330
0.18045709 0.20647748 -0.17244333
-0.15025477 -0.12924252 -0.18278529
-0.14574972 -0.13383657 -0.15421195
-0.19043526 -0.12010131 -0.15107788
-0.00407837 -0.15447988 -0.12637557
-0.16552724 0.19229926 -0.17872319
-0.12084731 0.20688045 -0.18536593
-0.16405359 0.20125413 -0.15106408
-0.01530612 -0.15301105 -0.16459464
-0.02493225 -0.14452262 -0.19282176
-0.04158543 -0.14550783 -0.16495621
0.03394626 -0.17255068 -0.12589632
-0.23940110 -0.03533079 -0.02246205
-0.23039664 -0.06737137 -0.07020660
-0.25033730 -0.03379416 -0.06600447
-0.20516868 -0.06183232 0.01169049
-0.22002268 -0.07003695 -0.02742381
-0.22712727 0.00620347 0.01349188
-0.21620409 -0.02765136 0.01686319
-0.25223631 0.00270796 -0.02113679
-0.26275021 0.00593847 -0.06519954
-0.25802600 -0.02953166 -0.10693181
-0.23945978 -0.06391235 -0.11075525
-0.27246100 0.01482465 -0.14838365
-0.27356860 0.05576650 -0.17952788
-0.27209780 0.01432239 -0.17941967
-0.26410511 -0.02515855 -0.14688596
-0.26274696 -0.02321714 -0.17767556
-0.21674296 -0.09658799 -0.11244740
-0.20396292 -0.09630027 -0.07585243
-0.24631336 -0.05723525 -0.17810373
-0.24576201 -0.05985582 -0.14764607
-0.22182910 -0.08607577 -0.17752095
-0.22156745 -0.09006834 -0.14796722
-0.18120365 -0.12137205 -0.11660606
-0.19492954 -0.09849890 -0.03535400
-0.18322308 -0.09196769 0.00282443
-0.15500695 -0.10728905 0.00794470
-0.12631840 -0.12410197 0.00501008
-0.09001061 -0.13385475 0.00878906
-0.10530244 -0.15006898 0.01637731
-0.16853546 -0.12753773 0.02078437
-0.13632289 -0.14495163 0.01495998
-0.23430941 0.08818443 -0.00131343
-0.24178642 0.03850169 0.01012208
-0.22061914 0.08292427 -0.01331007
-0.22588402 0.03950208 0.00290784
-0.25114137 0.00143455 0.04198125
-0.23879318 0.00115007 0.01946119
-0.23965979 0.09558917 0.02496842
-0.25292972 0.04539049 0.03680085
-0.05922477 -0.15416057 0.02303411
-0.03981347 -0.13574217 0.02076950
0.00026661 -0.14635246 0.03881856
-0.03645555 -0.16878887 0.05334304
-0.07578211 -0.16893129 0.06653488
-0.09058880 -0.16274604 0.03476041
-0.02656127 -0.16478886 0.09556662
0.02016706 -0.14343397 0.13895290
0.00655665 -0.15659717 0.08569512
-0.00900055 -0.15712272 0.13784221
-0.05104056 -0.15486303 0.13871156
-0.06698646 -0.16234443 0.09914741
-0.11737416 0.20012835 -0.01974285
-0.13085866 0.19502960 -0.03353275
-0.09816848 0.22938785 -0.02633655
-0.13884665 0.20602022 -0.04216125
-0.16707870 0.16951858 -0.04454510
-0.17873952 0.18774799 -0.03758026
-0.18053308 0.19464605 -0.01274802
-0.12897046 0.20393510 -0.02070293
-0.11882366 0.19499555 -0.01459267
-0.06124612 0.13508189 0.09482403
-0.09346770 0.13783118 0.10744121
-0.09822117 0.15418914 0.07504596
-0.08466090 0.15742813 0.10180531
-0.10752506 0.16925853 0.07957371
-0.11948145 0.18629137 0.04431054
-0.10058594 0.16619618 0.04470434
-0.12068622 0.16713637 0.07641470
-0.11692729 0.13926931 0.10699063
-0.20960411 -0.06388303 0.01912026
-0.18642119 -0.09235654 0.01227048
-0.22569227 -0.07726222 0.03581076
-0.20171678 -0.10738406 0.02818473
-0.24167497 0.09505728 -0.03202454
-0.25944868 0.09876079 -0.06849614
-0.25502506 0.04943983 -0.02508314
-0.26747340 0.05108033 -0.06596508
-0.23687238 0.14503549 -0.07536506
-0.21871240 0.13777229 -0.04397863
-0.19526711 0.12645635 -0.03032867
-0.19793265 0.18055764 -0.08473886
-0.18440549 0.17784874 -0.05606664
-0.23929827 0.14249164 -0.11240515
-0.26413959 0.10140734 -0.10950395
0.20379947 -0.10955197 -0.16260396
-0.23879744 0.13670848 -0.17921092
-0.24118052 0.14257476 -0.14969102
-0.20591520 0.17578147 -0.15137884
-0.27242908 0.05549566 -0.10748664
-0.26533866 0.10182909 -0.14942101
-0.26126325 0.09732489 -0.17992339
-0.27433172 0.05789695 -0.14850546
-0.27212888 0.01013268 -0.10748791
0.01327358 0.27024063 -0.15515250
-0.03542889 0.25976703 -0.15440693
0.00523401 0.27835521 -0.11086685
0.04374331 0.26151103 -0.10485908
0.03377000 0.25784054 -0.05823015
-0.00219121 0.28910527 -0.06316220
-0.04181751 0.26881090 -0.11410999
-0.02685883 0.17729510 -0.30447802
-0.07345840 0.15232298 -0.34477669
-0.04526248 0.15674658 -0.34596097
-0.12576011 0.19932297 -0.20817384
-0.13493246 0.18292621 -0.25224862
-0.16612449 0.18474190 -0.20360301
0.01482898 0.26902011 -0.18572240
-0.00037963 0.23939140 -0.19706950
-0.16465102 0.21009037 -0.12229277
-0.20354261 0.17633609 -0.11874165
-0.09776269 0.23174338 -0.06976310
-0.10327955 0.22860737 -0.09881786
-0.14545591 0.21182431 -0.06557890
-0.15599903 0.21257921 -0.09105390
-0.02623030 0.17891364 0.13239525
-0.01126193 0.21271636 0.11432759
-0.01494240 0.24458915 0.08928336
-0.03928579 0.22770087 0.16642067
-0.03132886 0.19337380 0.15937348
-0.04929369 0.16140541 0.15977474
-0.05358728 0.03717415 0.15983020
0.00571274 0.01088277 0.17578468
-0.03743789 0.00776934 0.18056011
-0.03226263 0.07664072 0.13814825
-0.01778848 0.04250778 0.15312324
-0.10268348 0.07147414 0.15284826
-0.06436938 0.07400782 0.14434540
-0.09946167 0.03114240 0.16632721
-0.08854122 -0.00939066 0.18402815
-0.04032092 0.16173980 0.11281905
-0.05085868 0.17136611 0.11398151
-0.02661162 0.13936713 0.10561282
0.01307574 0.16554841 0.12523502
0.00157106 0.17249803 0.10986773
0.15324210 -0.16603291 -0.00438083
0.20427814 -0.15810251 0.00021068
0.24988803 -0.13575737 0.01061159
0.24533388 -0.13977462 0.03798114
0.15685552 -0.18948659 0.01908642
0.20390518 -0.16883276 0.02876896
0.23387283 0.18112364 0.03944126
0.20584418 0.22609247 0.04805434
0.20168757 0.20986645 0.02339580
0.26842448 0.15221041 0.06767093
0.24359013 0.19486016 0.05960047
0.10907692 -0.15819573 0.00522408
0.11091626 -0.17674191 0.01539967
-0.20495237 0.16819508 -0.18000171
0.07704588 0.25418869 -0.09759697
0.07648402 0.25862336 -0.05500482
0.16849095 0.24142893 -0.03396671
0.16776106 0.23817469 -0.07414157
0.12090743 0.25197050 -0.08839338
0.12123881 0.25258327 -0.04797619
0.11938028 0.24435602 -0.00415075
0.15860346 0.22548664 0.00667104
0.16310135 0.23369053 -0.11540934
0.11638376 0.25028327 -0.13043392
-0.19235452 -0.11487576 -0.18008080
0.15298551 0.23076512 -0.15388776
0.13630064 0.22650066 -0.18101512
0.07994363 0.24452040 -0.13753577
0.05118373 0.24594994 -0.14304416
-0.05389924 -0.02469341 -0.48546600
-0.07871727 -0.02723777 -0.49509364
-0.05115009 -0.04055528 -0.47672451
-0.09755141 -0.04201883 -0.48833701
-0.07554384 -0.04272475 -0.48690918
-0.10196389 -0.01211219 -0.49902347
-0.10058594 -0.02832031 -0.49707031
-0.05402409 -0.01074219 -0.48856366
-0.08065818 -0.01260905 -0.49827015
-0.02680071 -0.02268131 -0.46845022
-0.02531803 -0.03807628 -0.46149501
-0.02636719 -0.00809844 -0.47167969
0.00311662 -0.00348630 -0.45118716
0.00384939 -0.02050781 -0.45045486
0.00436325 -0.03658824 -0.44587481
-0.02348550 -0.05059870 -0.45070314
-0.04781517 -0.05293452 -0.46191406
0.00260085 -0.04998891 -0.43778434
0.00149865 -0.05957031 -0.43177989
-0.04158162 -0.06256767 -0.44301099
-0.01660156 -0.06152344 -0.43691045
-0.07124786 -0.05621902 -0.47146806
-0.06552827 -0.06593428 -0.45003146
-0.08534550 -0.06975374 -0.45461610
-0.09265372 -0.05761719 -0.47468674
-0.11230469 -0.04300895 -0.48730469
-0.12306162 -0.04266343 -0.48394680
-0.12792969 -0.01186848 -0.49511716
-0.11601066 -0.02750957 -0.49503508
-0.10726385 -0.05862181 -0.47367206
-0.11816406 -0.05793619 -0.47011307
-0.10058594 -0.07128906 -0.45422727
-0.11252746 -0.07120480 -0.45253286
-0.16019052 -0.04330725 -0.46386722
-0.15497181 -0.05651656 -0.45418569
-0.14548196 -0.04307788 -0.47463804
-0.13698342 -0.07032239 -0.44624314
-0.14160156 -0.05761719 -0.46374050
-0.15136719 -0.06835490 -0.44048119
-0.16894531 -0.05761719 -0.44123581
-0.17453089 -0.04324709 -0.44739899
-0.16365314 -0.02757089 -0.47001454
-0.14941408 -0.02792930 -0.48328182
-0.17871092 -0.02786438 -0.45263097
-0.18060713 -0.01269531 -0.45324036
-0.15100645 -0.01215319 -0.48442778
-0.16581438 -0.01269531 -0.47142813
-0.11740360 0.00192223 -0.49502379
-0.12792969 0.00097656 -0.49216902
-0.10103226 0.01066524 -0.48646072
-0.11621094 0.00878906 -0.48339844
-0.10253907 0.00183258 -0.49707031
-0.11816406 -0.01269531 -0.49902344
-0.14991154 0.00724171 -0.46885714
-0.16363250 0.00801691 -0.45783722
-0.16583334 0.00054800 -0.46809283
-0.15136719 0.00097656 -0.48131889
-0.18097720 -0.00097656 -0.45003447
-0.17822151 0.01153577 -0.44202313
-0.14746943 0.02202316 -0.45547044
-0.16096987 0.02287123 -0.44645894
-0.17285156 0.02636719 -0.43345702
-0.16851747 0.03887634 -0.42685801
-0.15917970 0.04182466 -0.43453258
-0.12792969 0.00755892 -0.47949222
-0.11277054 0.02480604 -0.46888170
-0.12067199 0.04514294 -0.44792601
-0.12450739 0.02246094 -0.46403828
-0.08888339 0.05183627 -0.45904833
-0.10816140 0.04746501 -0.45324492
-0.09500282 0.02894576 -0.47467163
-0.07717416 0.01350334 -0.48633701
-0.07991721 0.00161282 -0.49511713
-0.05054953 0.01577451 -0.47879666
-0.05343088 0.00097656 -0.48632815
-0.04654993 0.03580330 -0.46738759
-0.07189971 0.03167434 -0.47448519
-0.04007328 0.05751959 -0.45134613
-0.06553861 0.05468418 -0.45709339
-0.02259190 0.04004868 -0.45532706
-0.02437330 0.02136765 -0.46495679
-0.01693388 0.05945754 -0.44190341
-0.00046424 0.02839210 -0.44136491
-0.00227905 0.04538789 -0.43465051
-0.02593051 0.00478436 -0.47007564
0.00130470 0.01179611 -0.44805628
0.03694513 -0.09881123 0.23487926
0.00226831 -0.11363428 0.22901553
0.05741154 -0.12864548 0.25468603
0.05767894 -0.18072884 0.28840134
0.02749698 -0.14483713 0.25117090
0.10543925 -0.15539999 0.26006526
0.08486913 -0.16119733 0.28468773
0.07776296 -0.12200835 0.23471560
0.06279423 -0.08917565 0.22096306
-0.22602539 -0.03342564 0.02259837
-0.24478792 -0.04136017 0.04151127
-0.10675759 0.18855281 0.01002804
-0.11035156 0.19963831 0.02868635
-0.11537061 0.19201639 0.00524420
0.04624746 -0.03564710 0.19014587
0.03545513 -0.01600266 0.18492375
0.03308948 -0.02737924 0.17093144
0.04320462 -0.06438325 0.17290558
0.04537294 -0.04841365 0.18207619
0.03222656 -0.01855469 0.16113281
0.01570928 0.01050734 0.16193396
0.26093569 0.09937374 0.05880580
0.27595076 0.05606893 0.05893606
0.25155899 0.14229095 0.04980469
0.28624949 0.10513180 0.07580583
0.29456869 0.05590867 0.07801788
0.03262997 0.05863033 0.15821347
0.01613160 0.08147532 0.16126473
0.02082924 0.04379956 0.15534247
0.02050781 0.01660156 0.15722656
0.01269531 0.04557864 0.15361074
0.11724982 0.22949219 -0.00037145
0.11887202 0.24498968 0.01991864
0.16290845 0.24262445 0.03491215
0.08271025 0.22810532 0.00180098
0.07684986 0.26007104 -0.01286907
0.06152344 0.22621794 0.01666673
0.08118815 0.23622014 0.00895779
0.27871746 -0.09594249 0.02002062
0.30121329 -0.05638602 0.05675432
0.29199216 -0.04673928 0.02680142
0.27917114 -0.10260447 0.04618073
0.01791104 0.18246384 0.09081217
0.02246094 0.19628906 0.07769873
0.03118514 0.18932514 0.08905394
0.29787931 0.00304170 0.04449043
0.30533797 -0.00001221 0.07011432
0.05743379 -0.08000758 0.16714190
0.04603276 -0.09469409 0.15982710
0.07102193 -0.09062685 0.16934384
-0.00765634 0.07914258 0.14174764
0.00251892 0.04511761 0.15077323
-0.01898445 0.11418369 0.12950851
-0.04853753 0.10996069 0.12367699
0.00411096 0.12355085 0.14937705
-0.07802489 0.10801883 0.12699829
-0.10830785 0.10710694 0.13217406
-0.21085951 0.14006539 -0.02019818
-0.21085487 0.14624366 0.00592714
-0.09450883 0.09942931 -0.40753397
-0.11024116 0.09679852 -0.40325224
-0.08611874 0.12563388 -0.37854740
-0.09789824 0.14620607 -0.33919650
-0.05847903 0.17668957 -0.30659440
-0.00318570 0.19839752 -0.26055157
0.02384572 0.21070470 -0.21815014
-0.03853564 0.19655891 -0.26274997
-0.06268114 0.13083929 -0.38136742
-0.07310005 0.10323554 -0.41137090
-0.11588592 0.06980556 -0.42736271
-0.10102920 0.07276163 -0.43084681
-0.08203792 0.07654428 -0.43614510
-0.14175056 0.08925233 -0.39566615
-0.16025250 0.07963845 -0.39214218
-0.15937684 0.06023413 -0.41644254
-0.14568785 0.04274060 -0.44080302
-0.14354913 0.06499676 -0.42000839
-0.17285155 0.05032859 -0.41242278
-0.18086520 0.06940320 -0.39266407
-0.14060707 0.11373706 -0.36726063
-0.16212052 0.10184522 -0.36358175
-0.19171007 0.10836202 -0.33067569
-0.18459985 0.08638049 -0.36259392
-0.13850568 0.13609533 -0.33265150
-0.16381140 0.12410154 -0.33045852
-0.07404308 0.19270448 -0.25996196
-0.10472358 0.18977806 -0.25688866
-0.05709000 0.21245506 -0.21705365
-0.01394127 0.15527692 -0.33998254
0.02136041 0.14700368 -0.32772952
0.04021999 0.17216082 -0.29001272
-0.01269265 0.21570133 -0.21901971
-0.16509359 0.16503379 -0.24795154
-0.16515590 0.14591940 -0.29166871
-0.13631323 0.15835826 -0.29387179
-0.19452639 0.12524652 -0.29094818
-0.19851036 0.14326876 -0.24817677
-0.08844695 0.17030224 -0.30127069
0.01031966 -0.15912290 -0.19538040
-0.10393094 0.12200966 -0.37317050
-0.03050184 0.13338132 -0.38002026
0.05129488 0.22138715 -0.21443456
0.08968207 0.23773043 -0.19098072
0.07845146 0.22874589 -0.21385139
0.12378107 0.22099544 -0.20557941
0.10378588 0.20643204 -0.25197881
0.06173316 0.20094173 -0.25163785
0.16765560 0.20246221 -0.19705859
0.14192639 0.18709192 -0.24271663
0.07809838 0.18185385 -0.29505560
0.11513247 0.16634108 -0.28830031
0.08555122 0.14047784 -0.32775784
0.05140806 0.14960378 -0.32971075
-0.01445801 0.10569963 -0.40294757
-0.00010815 0.12777200 -0.36747786
-0.04500785 0.10552209 -0.40882877
0.02951319 0.19802152 -0.25331834
0.02635145 0.11764000 -0.35612902
0.00934533 0.09772455 -0.39207378
0.03062865 0.08883562 -0.38683268
0.05585357 0.11263714 -0.35900909
-0.02932904 0.08122777 -0.42976937
-0.00535290 0.07897022 -0.42161191
0.00850867 0.06916000 -0.41026241
-0.00354499 0.05824629 -0.43009686
-0.05643189 0.08103894 -0.43664706
-0.21937498 -0.02537542 -0.37247443
-0.20684122 -0.02663733 -0.40345484
-0.19994512 -0.04609820 -0.40093601
-0.22249761 -0.04882796 -0.33510166
-0.21182939 -0.04797648 -0.37086147
-0.23442297 0.00213031 -0.33642176
-0.23119125 -0.02380776 -0.33664998
-0.22241923 -0.00292969 -0.37244236
-0.20950003 -0.00769139 -0.40439764
-0.18780793 -0.04451043 -0.42664561
-0.19344379 -0.02760314 -0.43017095
-0.19585724 -0.01074219 -0.43128008
-0.18865265 -0.06408069 -0.39811662
-0.17921489 -0.05990752 -0.42189395
-0.16227826 -0.06542969 -0.43451303
-0.16711774 -0.07128906 -0.42021289
-0.17254628 -0.07801928 -0.39706564
-0.19825846 -0.06853660 -0.36839396
-0.18423751 -0.09091344 -0.33358091
-0.17888857 -0.08496093 -0.36844108
-0.20727040 -0.07241847 -0.33445480
-0.24037416 -0.05135645 -0.25051954
-0.24258490 -0.02179152 -0.29621005
-0.23239936 -0.04957966 -0.29523897
-0.25822031 0.01128003 -0.25198165
-0.25259545 -0.02106900 -0.25151274
-0.24881956 0.00713650 -0.29803202
-0.21522316 -0.07544450 -0.29441974
-0.22031777 -0.07828691 -0.24970378
-0.19334956 -0.10402863 -0.25043973
-0.18963988 -0.09756690 -0.29419383
-0.24554610 -0.05429167 -0.20348097
-0.22246321 -0.08236603 -0.20349708
-0.26045641 -0.02153281 -0.20416851
-0.27042452 0.01436850 -0.20477721
-0.25619563 0.04538628 -0.25147167
-0.24656403 0.08112797 -0.25032905
-0.24503812 0.03652149 -0.29633820
-0.22403651 0.05437070 -0.33251458
-0.23609945 0.06843488 -0.29464120
-0.23217073 0.02717605 -0.33524254
-0.27216050 0.05398545 -0.20629889
-0.25663862 0.09301869 -0.20483330
-0.22709432 0.11523006 -0.24972437
-0.23527715 0.13053058 -0.20483051
-0.20315817 0.16115618 -0.20379479
-0.22078644 0.10069815 -0.29342213
-0.20945668 0.08174625 -0.33068237
-0.20304823 0.02950609 -0.39715233
-0.21321191 0.04129968 -0.36738259
-0.22073534 0.01775184 -0.37061989
-0.20749357 0.00912522 -0.40167144
-0.19288671 0.04954970 -0.39307746
-0.20100431 0.06481077 -0.36403966
-0.18412393 0.03626557 -0.41593751
-0.19180739 0.01923798 -0.42315310
-0.19461015 0.00237439 -0.42716157
-0.01155485 -0.08663955 -0.39992863
-0.02625996 -0.10052360 -0.37419334
-0.04255060 -0.08448098 -0.40086469
0.00885004 -0.10102786 -0.37308258
0.02965508 -0.11284939 -0.33883709
-0.04347368 -0.10872113 -0.34205231
-0.01037134 -0.11558728 -0.34244391
-0.05580869 -0.09564276 -0.37435073
-0.06719237 -0.08529735 -0.40280369
-0.05560985 -0.07390913 -0.42540193
-0.02938628 -0.07202622 -0.42143786
-0.07714844 -0.07757910 -0.42923313
-0.00207432 -0.07185830 -0.41932121
0.01907517 -0.08300781 -0.39834857
0.04252084 -0.07135069 -0.39505136
0.01909411 -0.06542969 -0.41866332
0.04231993 -0.09230646 -0.36888641
0.09599009 -0.08206340 -0.32860366
0.06854276 -0.07683401 -0.36533827
0.06599394 -0.09979977 -0.33320484
0.07538499 -0.13489982 -0.25432202
0.05123284 -0.12157880 -0.29835641
0.00781827 -0.13092041 -0.30483860
-0.01540675 -0.13837349 -0.26405528
0.02763801 -0.14468980 -0.26238397
-0.03035840 -0.12235130 -0.30532613
0.11812895 -0.11731073 -0.24602078
0.09077419 -0.10719270 -0.29151842
0.15627682 -0.09521991 -0.23949873
0.12605113 -0.08833884 -0.28675932
0.14620484 -0.12981890 -0.19869302
0.09985476 -0.14802763 -0.20690477
0.04749391 -0.15453564 -0.21571289
-0.00033040 -0.15486071 -0.22045751
-0.04537784 -0.12368616 -0.26136672
-0.05792918 -0.11298136 -0.30293879
-0.07039645 -0.12201028 -0.25806111
-0.07939956 -0.10871276 -0.29918730
-0.08713351 -0.10129704 -0.33687916
-0.06769467 -0.10099158 -0.33917534
-0.05910615 -0.13003606 -0.21438001
-0.03311171 -0.13601014 -0.21757814
0.00464549 0.17592826 -0.29619420
-0.11963978 -0.11872809 -0.25461078
-0.15531965 -0.11583485 -0.25359204
-0.15286347 -0.12498380 -0.20763019
-0.19364275 -0.10993186 -0.20435765
-0.12417952 -0.10901239 -0.29606101
-0.15590595 -0.10925563 -0.29578325
-0.12692297 -0.10304179 -0.33412796
-0.15545030 -0.10226019 -0.33524415
-0.07669327 -0.09495808 -0.37363449
-0.10028946 -0.08886717 -0.40209967
-0.09392232 -0.09472657 -0.37218896
-0.08522722 -0.08788393 -0.40322551
-0.13115399 -0.09025745 -0.39984772
-0.15361223 -0.09478500 -0.36914125
-0.15161732 -0.08713818 -0.39834851
-0.12907033 -0.09667968 -0.36942056
-0.15017655 -0.07784016 -0.42162448
-0.13378906 -0.08105469 -0.42568126
-0.09358519 -0.08032377 -0.43032819
-0.10644532 -0.08105469 -0.42898446
0.06035944 0.05616243 -0.39333460
0.10283562 0.04755341 -0.36300543
0.06722213 0.03392550 -0.39684361
0.12827712 0.09384497 -0.32342428
0.09540758 0.07500262 -0.36456805
0.14614403 0.03076085 -0.32354355
0.14009929 0.06262611 -0.32337981
0.10557196 0.02056399 -0.36311579
0.07013033 0.01168652 -0.39774770
0.02843003 0.04067234 -0.41994214
0.03454561 0.02208115 -0.42632738
0.03663233 0.00317991 -0.42929775
0.04785737 0.07490000 -0.38915640
0.02156001 0.05759066 -0.41449496
0.07913271 0.09746302 -0.36126158
0.11136343 0.12134539 -0.32649845
0.20618705 0.13012251 -0.23285061
0.16915299 0.11418900 -0.28113237
0.18568771 0.07729999 -0.27719086
0.22838397 0.09013204 -0.22881244
0.23845516 0.04679874 -0.22639675
0.19470753 0.03937233 -0.27694482
0.17992118 0.16521437 -0.24001257
0.14623846 0.14413159 -0.28421271
0.20570615 0.17447622 -0.18981975
0.23890346 0.13979624 -0.18320584
0.25927922 0.09622205 -0.17660031
0.27246284 0.05123776 -0.17350025
0.23327507 0.00494915 -0.22692171
0.19073166 0.00255377 -0.27810180
0.21579161 -0.03327646 -0.23017943
0.17461002 -0.03142589 -0.27929693
0.13364178 -0.03105569 -0.32384491
0.14394155 -0.00117489 -0.32390165
0.24884310 -0.03522933 -0.17708738
0.26663131 0.00612346 -0.17429210
0.22152771 -0.07253300 -0.18337798
0.18952706 -0.06729914 -0.23458761
0.18775216 -0.10416092 -0.18972939
0.15360288 -0.06214887 -0.28237164
0.11838438 -0.05878182 -0.32612580
0.06592367 -0.03347569 -0.39548364
0.09804986 -0.03217164 -0.36254525
0.10487647 -0.00621096 -0.36300138
0.06947253 -0.01117727 -0.39637998
0.05707255 -0.05368279 -0.39409548
0.08691839 -0.05643535 -0.36304808
0.02986617 -0.05178969 -0.41953349
0.03488800 -0.03483143 -0.42367956
0.03714462 -0.01593699 -0.42671466
0.26317459 0.15329109 0.10008584
0.24696308 0.14642622 0.12466753
0.27786434 0.10029995 0.10790772
0.27358750 0.05085761 0.13530454
0.25961185 0.09084905 0.12715670
0.28987601 0.05585976 0.10852454
0.22052889 0.18545203 0.11038414
0.23461168 0.19367488 0.08741008
0.18717961 0.21272123 0.09442469
0.19730814 0.22122559 0.07210243
0.20026176 0.17028101 0.12636508
0.22224429 0.13292068 0.14097573
0.17249702 0.19599637 0.11151106
0.16078708 0.18047898 0.12341406
0.17435715 0.15843116 0.13885550
0.18861666 0.11937502 0.14960437
0.23567882 0.08218551 0.14435960
0.20866421 0.03609098 0.16600083
0.20280603 0.07726848 0.15950598
0.24611352 0.04258072 0.15574217
0.27120855 -0.05748134 0.12907438
0.27952933 -0.00564225 0.13560949
0.29575065 -0.00246053 0.10248865
0.29055735 -0.05684100 0.09328836
0.24790972 -0.01082246 0.15670571
0.24195717 -0.05946712 0.15311311
0.21071194 -0.01402613 0.16985731
0.20473287 -0.06110028 0.16471171
0.25104427 -0.10159895 0.11934613
0.22282660 -0.10164148 0.14534986
0.18248363 -0.12095040 0.14863050
0.19225124 -0.09768469 0.15567492
0.22102089 -0.13822517 0.11021101
0.20024216 -0.13073488 0.13587193
0.26826471 -0.10305684 0.08263214
0.23503828 -0.14073305 0.07347709
0.14811470 -0.18771303 0.05361378
0.13732190 -0.19403605 0.09541500
0.10465282 -0.19469005 0.04321206
0.09550050 -0.21227615 0.07688430
0.19377914 -0.16906665 0.06425042
0.18114358 -0.16552383 0.10194688
0.16640137 -0.15168829 0.13091959
0.13936199 -0.17891651 0.13490555
0.15666416 -0.13175973 0.15213537
0.12553926 -0.15392406 0.16297276
0.13129318 -0.22466391 0.15465511
0.12407013 -0.23811290 0.12362733
0.10812251 -0.25913352 0.20680077
0.11565606 -0.20910606 0.18100119
0.12070704 -0.28615269 0.14911063
0.12704901 -0.27352411 0.18031815
0.10909244 0.22844376 0.07060523
0.07185569 0.22497110 0.06638957
0.07698586 0.24151900 0.03638178
0.11612544 0.24028063 0.04677028
0.06479594 0.20405714 0.09308658
0.10293666 0.21155839 0.09552551
0.10221808 0.19671154 0.13511036
0.05762469 0.19514115 0.12772685
0.13918620 0.21142045 0.10240632
0.14785042 0.22763044 0.08049264
0.13612060 0.18736209 0.12385923
0.15688646 0.23879856 0.05844726
0.12522167 0.05845033 0.31328729
0.16083460 0.08519324 0.38327914
0.13576236 0.09821854 0.37748650
0.17941549 0.05062744 0.31577814
0.15043166 0.04437546 0.32076705
0.18952820 0.12619630 0.43259987
0.18952109 0.09186137 0.37755135
0.16051954 0.11674923 0.44155142
0.13384348 0.13042487 0.43381891
0.13621522 -0.04800615 0.19108081
0.12819314 -0.10474809 0.17171600
0.09737626 -0.10045309 0.17268160
0.10764423 -0.05323716 0.19980961
0.09010111 -0.14833266 0.16749248
0.16526817 -0.05992612 0.17153254
0.15877344 -0.10088810 0.16515784
0.14416662 0.00523482 0.19013342
0.16956332 -0.01089341 0.17246346
0.13040677 0.05197455 0.18239732
0.16894303 0.03761836 0.17150623
0.11257716 0.10795529 0.17620507
0.11820706 0.07565130 0.17089844
0.07174814 0.06818070 0.16332477
0.06589261 0.08761117 0.17580274
0.08837053 0.06487548 0.18098702
0.15238222 0.11305670 0.15851785
0.16158813 0.07767422 0.16604848
0.11651385 0.15592059 0.16162078
0.14296985 0.15224871 0.14379326
0.06552510 0.10086825 0.21045110
0.02546812 0.10398067 0.20088258
0.10071944 0.12328783 0.21398801
0.09148256 0.13281423 0.25960019
0.06003708 0.11113435 0.25094849
0.02500702 0.11665743 0.23746662
-0.11912746 -0.15810385 0.07154766
-0.11175570 -0.15249270 0.09927025
-0.10863557 -0.14136982 0.12363192
-0.14255153 -0.13411167 0.12013157
-0.16264179 -0.14169736 0.07691610
-0.15304208 -0.13800246 0.10188617
-0.13136810 -0.15818939 0.04474388
-0.17024910 -0.13897310 0.05091094
-0.24297231 0.00568100 0.17516723
-0.26341271 0.00270279 0.15407977
-0.27228817 0.01199921 0.17456642
-0.24956869 0.01701548 0.19689909
-0.26596153 0.02608105 0.23231542
-0.28807074 0.02317411 0.20279691
-0.30042022 0.03840442 0.17188451
-0.27405605 0.00850914 0.12608203
-0.28317022 0.02445632 0.14440797
-0.19812664 -0.11943576 0.08407670
-0.20379980 -0.11601856 0.05686036
-0.23393139 -0.09398029 0.09640322
-0.23021843 -0.08490474 0.06427030
-0.18527327 -0.12123373 0.11170175
-0.21315205 -0.10561860 0.12881537
-0.16068046 -0.12274577 0.13377801
-0.18832177 -0.09903856 0.15594915
-0.24867825 -0.04483276 0.06748025
-0.25226340 -0.03583774 0.09264363
-0.24808735 -0.05601741 0.09421587
-0.25182909 -0.02175515 0.08117962
-0.25292969 -0.00203293 0.07324219
-0.25292969 0.00003036 0.06152344
-0.21006286 0.13766414 0.06240074
-0.19167559 0.12076652 0.09283575
-0.23940295 0.09364594 0.08649221
-0.18744320 0.07220935 0.14628892
-0.21430041 0.08926029 0.11785043
-0.15893492 0.13354485 0.10180770
-0.16782601 0.10747143 0.11857673
-0.17001641 0.15209380 0.07777266
-0.18326718 0.17647229 0.04667055
-0.21363901 0.14596175 0.03184322
-0.23969771 0.09577952 0.05136197
-0.18219538 0.18794583 0.01531825
-0.14298251 0.20836000 0.00914313
-0.14895903 0.18794243 0.04168244
-0.14548855 0.16284291 0.07265268
-0.13996461 0.13757648 0.10567654
-0.22380282 0.04131576 0.19199991
-0.19067800 0.04033213 0.16470458
-0.24119557 0.09122880 0.21799044
-0.22158569 0.07478717 0.17930907
-0.24210081 0.05563258 0.23704664
-0.19843718 0.02179281 0.16421348
-0.21870181 0.01472975 0.17263415
-0.00114147 -0.15955876 0.21074115
-0.05544302 -0.14194450 0.15842341
0.05180915 -0.22227663 0.24295099
0.00339621 -0.18094595 0.19232148
0.04729983 -0.20429124 0.26867399
-0.02845175 -0.12416457 0.19493289
-0.05551058 -0.12592426 0.16517419
-0.14348371 0.06797697 0.15007746
-0.13913485 0.10497028 0.13047783
-0.11527373 -0.12707479 0.14549503
-0.11279554 -0.09739252 0.16406301
-0.08573230 -0.11273284 0.16018680
-0.14275546 -0.09635429 0.15672426
-0.19784072 0.07368824 0.26945409
-0.21498434 0.08416452 0.24725094
-0.20335843 0.08293396 0.27173939
-0.26208609 0.11005258 0.18660441
-0.25561994 0.07982796 0.20923690
-0.26719284 0.09012863 0.18788254
-0.24167430 -0.10304052 0.15619944
-0.22560215 -0.09384385 0.18353789
-0.25355086 -0.10166275 0.22203933
-0.29176813 -0.09279633 0.16014276
-0.27327296 -0.11035156 0.18785127
-0.26061752 -0.08830217 0.12963437
0.13275029 -0.05213551 0.31789231
0.12485404 -0.03680509 0.32817465
-0.23159230 0.10030574 0.23415408
-0.21405487 0.07601927 0.23779765
-0.27458292 0.05268298 0.11922500
-0.25376487 0.05387063 0.08890505
-0.25683591 0.03035075 0.08992763
-0.26564729 0.02098538 0.10449218
-0.30341476 0.07025392 0.15470159
-0.29104289 0.10499214 0.15768114
-0.26328528 0.08910498 0.12478708
-0.25439569 0.04423689 0.06302804
-0.25488281 0.01620837 0.07910156
-0.14941406 -0.08300781 0.45996094
-0.13899420 -0.09557023 0.45490801
-0.14902845 -0.09386695 0.45275003
0.14500473 -0.04481190 0.30698639
-0.15057491 0.02653767 0.16352238
-0.18348710 0.00676640 0.16503906
-0.17038094 -0.01254136 0.16699219
-0.14139771 -0.01356315 0.17193075
-0.27281535 -0.01317287 0.17090806
-0.27441406 -0.01664737 0.12496217
-0.26394603 -0.01322688 0.15248576
-0.28470835 -0.02267545 0.14100930
-0.30488527 -0.02638565 0.16710776
-0.26575714 -0.02109178 0.22800048
-0.29190817 -0.00955475 0.19841924
-0.24439719 -0.01911706 0.17259502
-0.25211093 -0.02506323 0.19244479
-0.19237013 -0.06460172 0.16801816
-0.22915450 -0.05619035 0.19124758
-0.20033669 -0.04361315 0.16561410
-0.22153102 -0.03269397 0.17347345
-0.25058609 -0.06032718 0.23649246
-0.23962982 0.09072296 0.15238954
-0.26160306 -0.00455895 0.09468418
-0.26432467 -0.02823106 0.10481948
-0.27050781 -0.00488281 0.11872226
-0.21092524 -0.00989379 0.16706152
-0.18331759 -0.03022880 0.16503903
-0.25933701 -0.00679683 0.14561722
-0.27251428 -0.05257839 0.12087125
-0.30299169 -0.05829949 0.15341423
0.03832785 -0.07123379 0.24173698
0.07172286 -0.08062649 0.27342930
0.06902301 -0.05345261 0.23088531
0.13786033 -0.07752339 0.30029410
0.09886779 -0.06187090 0.26666924
0.11478207 -0.10016651 0.31052768
0.08702161 -0.09923095 0.32977283
0.04197797 -0.08296467 0.28666899
-0.00768391 -0.07641761 0.24169835
0.06746820 -0.13295378 0.20119222
0.04671238 -0.09699588 0.17736022
0.04073142 -0.11714432 0.16652781
0.05907547 -0.09325884 0.19561128
0.09274676 -0.19432367 0.22107910
0.10563564 -0.17128751 0.23499547
0.05125507 -0.16293396 0.18539749
-0.01110883 0.09217114 0.49410951
-0.01885039 0.09921576 0.49836993
-0.01483695 0.07425069 0.49154454
0.02684087 -0.18047453 0.18229948
0.07382927 -0.21748203 0.22333254
0.18192793 0.13530578 0.42942759
0.00354443 0.10217114 0.48925784
0.04003906 -0.06412610 0.16503908
0.03618088 -0.09977404 0.14740501
0.04564263 -0.08108169 0.17311497
0.02832031 -0.12292133 0.11522581
0.02191179 0.00234153 0.25464627
0.06642140 -0.01241708 0.30089784
-0.01081966 -0.01646090 0.26222286
0.07882094 -0.03984021 0.35476959
0.03782772 -0.02868468 0.30990124
0.13141654 -0.01834148 0.32406655
0.10374107 -0.01896132 0.34551126
0.09571396 -0.00688249 0.28432772
0.05962974 0.00485743 0.24350329
-0.14544059 -0.05596783 0.16864921
-0.08645874 -0.06363114 0.18731165
-0.10248443 -0.07878286 0.17539176
-0.09703279 -0.04343008 0.18787616
-0.05806639 -0.04268448 0.21798439
-0.05538625 -0.06873374 0.20676555
-0.01901632 -0.04851620 0.25733477
-0.04701145 -0.01462256 0.22061840
0.05824681 -0.04155283 0.20374519
0.05143914 -0.06667871 0.19750078
0.05045949 -0.07143532 0.21205556
-0.05710946 -0.09623491 0.19181639
-0.01223760 -0.09041266 0.22289360
0.02765412 -0.07898732 0.22570379
0.05212028 -0.01434216 0.20593093
0.02924364 0.00664892 0.20796134
0.07713865 -0.02012931 0.23482718
0.05678919 -0.24122116 0.10662921
0.09429300 -0.24703151 0.10585034
0.05498793 -0.28369832 0.13600683
0.09047422 -0.28936765 0.13315141
0.05204182 -0.20394963 0.16723521
0.04563710 -0.22488132 0.13314122
0.03886100 -0.25676537 0.19254519
0.03417969 -0.27118772 0.15889233
0.08305109 -0.20163609 0.18440482
0.07211629 -0.25401869 0.21056837
0.04706197 0.11340971 0.28700337
0.01484638 0.11621162 0.26498562
0.07289433 0.13294652 0.30603871
0.04829864 0.12688223 0.34307507
0.02967372 0.10879821 0.31605422
0.00295461 0.10874403 0.29012018
0.00891235 0.13797081 0.18632454
0.01486405 0.18007709 0.17287189
0.00523449 0.14770323 0.22504383
0.00463830 0.19005260 0.21841908
0.10961577 0.16818975 0.20539771
0.08018715 0.21703452 0.24731807
0.09235618 0.20732872 0.18790400
0.10009979 0.17669001 0.25935394
0.05051329 0.20684178 0.17403881
0.03726373 0.21885848 0.22800075
-0.06254759 0.02208793 0.36292085
-0.06176429 0.04173272 0.32651043
-0.06881281 0.03027344 0.32400516
-0.06095078 0.03652454 0.41344559
-0.05385948 0.03613281 0.36524251
-0.06787076 0.01671285 0.40737933
-0.08379576 0.00360838 0.40282708
-0.07069697 0.00878906 0.35831255
-0.07455049 0.01846246 0.32145554
-0.01270902 0.18360105 0.25835410
-0.00616794 0.14451705 0.25677720
-0.03134602 0.16739726 0.28828278
-0.02135886 0.13289259 0.27975559
0.05141618 0.20761956 0.30371559
0.01370216 0.20891553 0.27904588
0.01777561 0.18875596 0.34547180
-0.01312080 0.18873708 0.31587064
0.07470141 0.17332928 0.31312138
0.04426220 0.16152743 0.35719952
-0.10973328 -0.02461234 0.38745931
-0.14052960 -0.03918917 0.43032545
-0.12273469 -0.05085092 0.42862919
-0.12785363 -0.01876394 0.39560258
-0.14402249 -0.00828707 0.38189179
-0.16073996 -0.03261615 0.42383587
-0.17564200 -0.06009848 0.46141770
-0.13936169 -0.07798941 0.46452740
-0.15633370 -0.06698491 0.46491405
-0.03026202 0.07214786 0.44711369
-0.06736053 0.09754908 0.40891135
-0.04336516 0.08848938 0.45280692
-0.03373952 0.07243599 0.40096974
-0.04865596 0.08041363 0.41443437
-0.01356977 0.06388374 0.43842262
0.00641655 0.04828084 0.47186241
-0.01295438 0.05634951 0.48433012
-0.02462710 0.07578576 0.49393618
0.00378797 0.11312015 0.43743199
0.00091188 0.09891787 0.38676041
0.01402282 0.09168740 0.43099016
-0.00927932 0.12146062 0.39651105
-0.03434017 0.13822891 0.39440987
0.00146781 0.11251038 0.49335250
-0.01795852 0.12279762 0.44655758
0.02128300 0.10238353 0.47958550
0.02972166 0.08273501 0.46797130
-0.10474082 0.07096039 0.41479349
-0.12127007 0.05372773 0.40322426
-0.12670437 0.06332482 0.35937321
-0.11564378 0.08105467 0.36522651
-0.11141550 0.07789581 0.32509077
-0.12771347 0.04847155 0.31827265
-0.12069691 0.06313173 0.32168007
-0.12798613 0.03089936 0.39621928
-0.13621351 0.04591184 0.35283095
0.01225126 0.09756079 0.33496696
-0.01114287 0.09586151 0.30433410
0.02414118 0.11491988 0.36645076
-0.00510140 0.08452439 0.34693044
-0.02419938 0.08255203 0.31380269
0.01425047 0.14443679 0.38090941
-0.01211755 0.16793753 0.37150314
-0.03694344 0.16827375 0.33831647
-0.05033620 0.14930236 0.30561653
-0.06561550 0.13211696 0.31663880
-0.05716484 0.14695664 0.35157260
-0.03639906 0.11773963 0.29329395
-0.00737309 0.11578236 0.28810883
-0.05029348 0.10337164 0.30162024
-0.16179968 -0.04404614 0.35325161
-0.18204750 -0.07017846 0.32155859
-0.18330298 -0.05232267 0.29311571
-0.17123351 -0.02338101 0.31513497
-0.15449938 -0.01532028 0.28493619
-0.16494901 -0.04417485 0.26563212
-0.18023127 -0.07696087 0.23889931
-0.20066565 -0.08623168 0.26724476
-0.20288205 -0.10579401 0.29716218
-0.10571590 0.00633131 0.44152501
-0.12024255 0.02179514 0.44020984
-0.10838533 0.01162599 0.40799803
-0.08781698 -0.01399659 0.48377010
-0.08616056 -0.00162453 0.44496441
-0.10646067 -0.00570993 0.48104215
-0.12108676 0.00870722 0.48349473
-0.16047332 -0.00096617 0.33196989
-0.15699306 -0.02283004 0.37030807
-0.13877465 0.02221873 0.30891472
-0.15092283 0.01592316 0.34271368
-0.14621462 0.00689005 0.29889172
-0.09262697 -0.03703957 0.33920848
-0.08935090 -0.02365382 0.30424005
-0.08378412 -0.00665694 0.31352225
-0.08502939 -0.01778314 0.34936747
-0.11628856 -0.04356064 0.37569553
-0.12892644 -0.06146637 0.35691065
-0.10271534 -0.06109791 0.32253748
-0.09896801 -0.04640449 0.29018021
-0.25598863 0.05916632 0.22071317
0.14383641 0.13814442 0.43066409
0.16233222 0.12815605 0.43372679
-0.16205446 -0.08763987 0.33225173
-0.13526317 -0.09643400 0.32672903
-0.14711143 -0.05595733 0.35945547
-0.17981040 -0.12651670 0.31182191
-0.14709303 -0.13450775 0.30410358
-0.11463234 -0.09141187 0.30073008
-0.11103939 -0.07482641 0.27078322
-0.12635498 -0.12700538 0.27716368
-0.12106210 -0.11066587 0.24328347
-0.13429998 -0.05522537 0.25825486
-0.12317886 -0.02698691 0.27691817
-0.14682588 -0.08800682 0.22791949
-0.24195999 0.12269729 0.24422713
-0.23671833 0.09792674 0.21961460
-0.26778829 0.04102566 0.21816467
0.00429826 0.07228345 0.43263996
-0.01353403 0.08109932 0.39496669
0.02563180 0.05953017 0.46557990
-0.17430501 -0.04282270 0.41132855
-0.18599537 -0.08672872 0.43979800
-0.17329742 -0.06102747 0.40209794
-0.18844493 -0.06995564 0.45042035
-0.12440004 -0.06899357 0.41753078
-0.13946629 -0.07853098 0.40642652
-0.15303954 -0.10488726 0.44356161
-0.24104777 0.13704762 0.26687649
-0.25032240 0.13070586 0.23374608
-0.06978434 0.00711096 0.44896558
-0.06608658 0.02456991 0.45457608
-0.06564135 0.01390452 0.49159923
-0.06968996 -0.00488281 0.48668289
-0.08053379 0.04029326 0.45773497
-0.07858934 0.05356819 0.42776003
-0.10074533 0.05093791 0.45555055
-0.09873784 0.03431906 0.49544525
-0.07910156 0.02794051 0.49457461
-0.11740398 0.04062791 0.44657958
-0.11621094 0.02607260 0.49037606
-0.07889670 0.11722653 0.32328507
-0.06068992 0.09239326 0.30821806
-0.03489986 0.07149774 0.31989992
-0.04463077 0.06253109 0.32374954
-0.06969921 0.08250498 0.31019744
-0.09060229 0.10455229 0.32702267
-0.02025577 0.07268063 0.35492796
-0.03417968 0.06223284 0.35995159
-0.05667920 0.12177317 0.40467146
-0.07421707 0.12745205 0.36083063
-0.08869743 0.10941661 0.36590621
0.00827994 0.05566407 0.47494236
-0.00628222 0.05997565 0.48339844
-0.17977233 -0.07463519 0.45079529
-0.15747072 -0.07270133 0.40270153
-0.17202350 -0.10035432 0.43907782
-0.03720212 0.11091292 0.45226786
-0.10441071 0.02333399 0.30365625
-0.07910156 0.00683594 0.31818914
-0.10883279 0.01074219 0.29879770
-0.13371094 0.03605468 0.31386864
-0.09937162 0.03491850 0.30625477
-0.11659339 0.00178501 0.39438620
-0.09342293 -0.00683594 0.38788691
-0.13711871 0.01618068 0.38162547
-0.07770821 -0.00393186 0.35502744
-0.14382872 0.03069733 0.34815302
-0.11488878 -0.00521925 0.29066780
-0.07831333 0.07136090 0.31082934
-0.05257114 0.05195135 0.32552490
-0.08676933 0.05948299 0.31035286
-0.10156141 0.09178051 0.32705808
-0.05025175 0.05483766 0.40095437
-0.06790093 0.06779899 0.41672760
-0.08948787 0.08567613 0.40446782
-0.04497709 0.04993859 0.36348271
-0.10313562 0.09548181 0.36714771
-0.09409849 0.04724528 0.30838269
-0.01122255 0.00217370 0.21433938
0.10816769 -0.03143348 0.27140823
0.02902736 -0.05960758 0.30138308
0.07541004 -0.07288709 0.34641156
-0.28237143 0.03516224 0.20057929
0.13096970 0.14960675 0.34834686
0.12037468 0.11105743 0.28635147
0.12464692 0.12409292 0.36417681
0.11593243 0.08388761 0.30021474
0.12402342 0.15727262 0.41979080
0.13086221 0.18398398 0.40287066
0.20102385 0.11959954 0.36087424
0.19628906 0.08496094 0.30566406
0.19378750 0.08063082 0.29910305
0.18456478 0.11353236 0.28293049
0.19327982 0.14991945 0.34409964
0.19176346 0.18249741 0.39991751
0.19915581 0.15268971 0.41483197
0.16067581 0.15961459 0.34021857
0.15117018 0.12353101 0.27940568
0.16103074 0.19563955 0.39578268
0.15677302 0.07778212 0.22714639
0.12617800 0.08797993 0.22300567
0.09155329 0.07415477 0.22760257
0.16466297 0.04050216 0.23985858
0.15409319 0.00411527 0.25093976
0.08644036 0.04268343 0.23773797
0.10073150 0.01256164 0.24930112
0.12665834 -0.00373921 0.25526622
-0.11397342 0.25769466 0.10882464
-0.12233744 0.25184292 0.15583943
-0.13285382 0.22535819 0.14225130
-0.12110823 0.22768295 0.11020564
-0.11237805 0.19481769 0.12114130
-0.14471129 0.17964678 0.15996477
-0.12726857 0.19090933 0.14044228
-0.14059944 0.23470865 0.19074619
-0.15029646 0.21288401 0.16823453
-0.05718683 0.28677580 -0.01783965
-0.06253464 0.28052053 0.05280251
-0.08797278 0.26827249 0.04072557
-0.07593617 0.25050187 -0.02575473
-0.10581085 0.24846403 0.04226836
-0.07100765 0.26337487 0.10623720
-0.09181263 0.26464841 0.11469638
-0.06569900 0.17397535 0.12309475
-0.10373442 0.18629381 0.09850299
-0.08373515 0.17309307 0.14037052
-0.11210358 0.21894965 0.06582191
-0.14771608 0.20217124 0.24873500
-0.09934144 0.19012415 0.24355344
-0.13070804 0.17226276 0.26576823
-0.16708989 0.15897556 0.17844331
-0.14846364 0.13467650 0.19708352
-0.15840504 0.15387402 0.28766975
-0.12639388 0.14028832 0.25441566
-0.14944655 0.12324413 0.27553073
-0.15442954 0.10683133 0.24675730
-0.09176037 0.13983533 0.24056870
-0.07908048 0.16616446 0.25590020
-0.10665908 0.15168816 0.23535515
-0.10744794 0.13671850 0.20558599
-0.07930602 0.09962936 0.22735736
-0.09008852 0.12451918 0.21455960
-0.06198733 0.13688844 0.27589208
-0.08001520 0.11470694 0.25670594
-0.10454489 0.16534626 0.15747114
-0.08203777 0.14562491 0.17849334
-0.12607203 0.15590973 0.17829899
-0.09172331 0.24968702 0.17516060
-0.07048785 0.21840097 0.21097682
-0.06007887 0.25266415 0.13550770
-0.11703587 0.22522344 0.21827328
-0.20392829 0.16078934 0.28564611
-0.18398452 0.13596258 0.30227947
-0.17736913 0.18059659 0.27171186
-0.19399600 0.18862437 0.24110161
-0.24974509 0.15211122 0.26502529
-0.22059360 0.16900194 0.25472245
-0.23062463 0.14373206 0.29681000
-0.20892222 0.11951838 0.31342486
-0.13168813 0.12341292 0.22722617
-0.18924402 0.13767716 0.19832514
-0.17024161 0.11488730 0.21613863
-0.16690174 0.21258759 0.21907151
-0.17272724 0.19149834 0.19157721
-0.19724432 0.16847451 0.21202514
-0.17001340 -0.06877899 0.45896634
-0.29253229 0.04359768 0.17990114
-0.22177204 0.14829707 0.22511461
-0.21118279 0.11804999 0.21100928
-0.17295209 0.10729186 0.28913456
-0.17670517 0.09376039 0.25988948
-0.19585909 0.08898009 0.30117872
-0.19159356 0.09624320 0.22908838
-0.03730552 0.10089143 0.29752076
-0.05659661 0.07934265 0.27761123
-0.05967097 0.06221446 0.24724707
-0.02991669 0.02429903 0.27439386
-0.00847496 0.06897094 0.31990141
-0.02764527 0.04493879 0.30311981
-0.04329737 0.14167818 0.18422548
-0.03006982 0.16703176 0.19282725
-0.01080703 0.15465286 0.23996840
-0.03001546 0.18961605 0.21238503
-0.03056390 0.11283123 0.20051174
-0.01299949 0.13559513 0.21463445
-0.05231320 0.18762000 0.23976141
-0.03261898 0.15358427 0.26556778
-0.06945942 0.12645708 0.19297431
-0.05862455 0.09912123 0.20481743
0.06892660 0.06549869 0.30915701
0.04127140 0.08309751 0.28586873
0.04653691 0.06443664 0.33120441
0.02025123 0.08285971 0.30949762
0.02005909 0.04987058 0.34321538
0.04879270 0.04102175 0.36926135
0.09641971 0.05780110 0.33465430
0.07346409 0.05728730 0.35614759
-0.00863954 0.07370841 0.21899362
0.01056010 0.09700774 0.23669437
0.03910420 0.06221110 0.26073131
0.02150625 0.03627347 0.24436809
-0.03806365 0.05983149 0.22300279
-0.00815275 0.01973537 0.24875043
0.10779524 -0.01772492 0.35696211
0.04579776 -0.01192929 0.34098607
0.08466756 -0.01567848 0.37487233
0.09355302 0.00295194 0.31231993
0.06997201 -0.01558067 0.32159361
0.16555966 -0.00008617 0.37838015
0.12922533 0.00087798 0.34737226
0.14526327 -0.02047446 0.39120740
0.11957309 -0.01837874 0.40972707
0.07089709 0.04211653 0.28836629
0.05665734 0.01314404 0.27656215
0.10396049 0.03348788 0.31793010
0.02995354 -0.00454774 0.28394499
0.00697217 -0.00005118 0.30659351
0.00469799 0.02280627 0.33053336
0.03893476 0.01180276 0.36020455
0.18335266 0.17509118 0.40661556
0.19014561 0.15490812 0.41794991
0.07470339 0.00738122 0.39156389
0.08078598 0.03766746 0.39821362
0.10819469 0.00457592 0.42650798
0.11159704 0.03717602 0.43268543
0.12643985 0.05669430 0.36361426
0.10296312 0.05542811 0.38472924
0.15895467 0.06111171 0.39321536
0.13388212 0.06040898 0.41755956
0.13590622 0.03113850 0.35017359
0.17217189 0.03331541 0.37995568
-0.21886891 0.15790771 0.25715005
-0.20139624 0.15446682 0.28020543
-0.22763300 0.13429126 0.29043117
0.07774968 -0.23374605 0.18552855
0.07587569 -0.26366210 0.19421263
0.10119656 -0.23870675 0.18584110
-0.22977582 0.04348357 0.18734276
-0.23243432 0.06753171 0.18196070
-0.18796363 0.13380015 0.29695717
-0.00313036 0.06238223 0.45439515
-0.01859580 0.06819288 0.46295303
-0.24574782 0.02360920 0.18817343
0.09043338 -0.02657922 0.31467429
0.10787427 -0.03600723 0.33887836
0.07615215 -0.04103605 0.32521254
-0.02558086 0.08196726 0.47372416
-0.18607369 0.10321099 0.23396714
0.11258894 -0.02702335 0.30543488
-0.26207808 0.02078247 0.16944845
-0.20636955 0.11909298 0.21838845
-0.07615784 0.01074219 0.49081576
-0.07324219 0.00292969 0.46462905
-0.07133294 0.01989515 0.46873903
-0.27843186 0.03196425 0.15489095
0.07152227 -0.06243815 0.31619802
0.09780194 -0.08516499 0.32923722
0.08187897 -0.08058758 0.30744520
-0.07972573 -0.00097656 0.48829266
-0.08713723 -0.00292969 0.46679109
-0.21360731 0.14523801 0.23072027
0.09027536 -0.06934987 0.33986869
-0.27570012 0.05319853 0.14209630
-0.11230469 0.00878906 0.48599207
-0.11035156 0.01322970 0.46465218
-0.10476346 0.02962825 0.46395403
-0.29238474 0.06451764 0.16718574
-0.26639012 0.07770558 0.14724366
-0.02407133 0.10139441 0.47128236
-0.09105714 0.03417968 0.47017643
-0.10815102 0.02057122 0.48894706
0.02441406 0.08129341 0.47091502
0.11404315 -0.08496094 0.31778213
0.12925731 -0.07204376 0.31350848
0.02112160 0.06483354 0.46921465
-0.15917969 -0.09953620 0.44611445
-0.17117207 -0.09472657 0.44171092
0.13574219 0.15684412 0.42031682
-0.21169326 0.11716259 0.30301651
0.01669692 0.09656692 0.47893775
0.14157008 0.17613527 0.40897056
-0.20149542 0.09685241 0.29344404
0.16227636 0.18255609 0.40239781
-0.25880799 -0.08945122 0.21127011
-0.27162191 -0.09807569 0.18948774
0.09655403 -0.17125870 0.25852782
0.09777515 -0.18102080 0.24301355
-0.28849217 -0.08584841 0.17083858
-0.17560148 -0.12052222 0.30101866
-0.19168666 -0.10587795 0.28973490
-0.17524953 -0.08558711 0.24797150
-0.15165597 -0.09336130 0.24197963
-0.26023647 -0.06352132 0.22294533
-0.26947039 -0.03642372 0.21785656
0.09096609 -0.19595937 0.23535155
0.15300797 0.05063469 0.39625633
0.16237095 0.03055532 0.38515437
-0.13551340 -0.12126381 0.27495155
0.09709658 -0.26586673 0.19242986
0.10947198 -0.27180555 0.17626324
0.16036510 0.00676895 0.38523772
-0.28447300 -0.02513862 0.19721575
-0.29650140 -0.03487583 0.17483737
0.10604455 -0.27977866 0.15754254
0.11490650 0.00818592 0.42026693
0.12517233 -0.00965593 0.40512666
-0.19008443 -0.09182002 0.26817968
-0.13513884 -0.10836703 0.25150579
0.05851768 -0.26695991 0.18287249
0.11992916 0.03149129 0.42355987
-0.29679739 -0.06049895 0.16474858
0.13339949 0.04873112 0.41145617
0.06597264 -0.27923688 0.14932562
0.05456899 -0.27327091 0.16458535
0.14483018 -0.00878906 0.39063814
-0.09667968 0.02580759 0.49316406
0.07693772 -0.20805202 0.23619688
-0.08309523 0.02118736 0.49386814
0.08453386 -0.17580698 0.27337864
0.06644319 -0.21386719 0.24928939
-0.09082032 -0.00683594 0.48663610
0.06501493 -0.20466033 0.26594105
-0.10449219 -0.00097656 0.48535156
0.08773524 -0.28104666 0.14696105
0.07128906 -0.19042969 0.27774704
-0.28372055 0.08524022 0.16979641
0.09348773 -0.04946869 0.34509706
-0.24680257 -0.06000491 0.16226847
-0.27182922 -0.06121705 0.14203754
-0.26952407 -0.08506216 0.15044722
-0.25022617 -0.09256445 0.16570650
-0.23944803 -0.08583019 0.18907699
-0.23636125 -0.06026296 0.19010702
-0.24779126 -0.04123551 0.18650620
-0.27367175 -0.03670973 0.15030321
-0.25707719 -0.03290082 0.16728233
0.05432326 -0.16734864 0.23851942
0.07477405 -0.17978601 0.22039409
0.05692595 -0.19019468 0.21999301
0.08129310 -0.15231301 0.24824582
0.08019102 -0.16161473 0.22821662
0.05256832 -0.17336805 0.26990131
0.06458714 -0.15549524 0.26352260
0.04534724 -0.19878748 0.23716158
0.04227945 -0.18608242 0.25560135
-0.24390478 0.07730735 0.16198307
-0.24730155 0.04612930 0.15855445
0.11063401 -0.25414073 0.14509895
0.09033306 -0.25284353 0.13259259
0.08490262 -0.23450610 0.15612644
0.11391932 -0.24180867 0.16575260
0.05801268 -0.23953879 0.17535254
0.05583903 -0.24373795 0.15247442
0.06748229 -0.25475389 0.13605455
0.08981547 -0.05053138 0.29640725
0.09882405 -0.07903730 0.29210767
0.11766364 -0.06662477 0.29044452
0.11854750 -0.04438835 0.29096699
-0.14527525 -0.07373572 0.29409584
-0.14002216 -0.10404404 0.30842957
-0.12431648 -0.09551896 0.29265684
-0.17762290 -0.08134821 0.30381814
-0.16012517 -0.09240283 0.31520134
-0.17418246 -0.06561103 0.28697866
-0.16281730 -0.06365676 0.26550913
-0.13795084 -0.06748968 0.26223075
-0.12403095 -0.08622622 0.26946470
-0.08842696 0.01715525 0.45605472
-0.07837522 0.03027344 0.46728808
-0.10058594 0.00097656 0.46227565
-0.01223885 0.08958445 0.45067531
0.00887291 0.07461248 0.44499671
0.01515124 0.09117377 0.44982117
-0.00664879 0.11192274 0.46815732
0.00619378 0.10644532 0.45447344
-0.13769531 -0.08088153 0.43179113
-0.15203094 -0.06369933 0.42168128
-0.13964842 -0.06738281 0.44510862
-0.14949478 -0.05566407 0.44333914
-0.17468469 -0.05748543 0.42778173
-0.17548995 -0.07324458 0.42237180
-0.15086544 -0.08880726 0.42542139
-0.16291654 -0.08227559 0.41894531
0.15981853 0.11865958 0.40823740
0.18067619 0.12676966 0.40610963
0.15874767 0.14055686 0.38682440
0.18151037 0.16393408 0.38530248
0.18640500 0.14245915 0.39206082
0.16031425 0.16994101 0.37988800
0.14034648 0.16628002 0.39048976
0.14151916 0.13049160 0.41071516
0.13420813 0.14619088 0.39823264
-0.18796624 0.13311101 0.25441614
-0.17398901 0.11265783 0.28180417
0.10320369 0.02307561 0.36654183
0.11645409 -0.00543129 0.36349145
0.13537358 0.00769483 0.36308065
0.12429211 0.04934907 0.37252101
0.13434298 0.03108546 0.36046937
0.08977499 0.03275524 0.39796990
0.10143787 0.04908273 0.38432831
0.09856719 -0.00668831 0.37819597
0.08429145 0.01080217 0.38769627
-0.16503908 -0.05188204 0.44130892
-0.15722656 -0.07324219 0.45996094
-0.17912848 -0.08496094 0.44391838
-0.03318261 0.27281365 0.07109652
-0.01367805 0.28946519 -0.00350477
-0.11910865 -0.08253305 -0.42794845
-0.11425781 -0.09015658 -0.40102261
-0.12402343 -0.07060287 -0.45016530
-0.11000378 -0.09638862 -0.37021598
-0.10600491 -0.10405416 -0.33618787
-0.11354637 -0.12975144 -0.21200873
-0.08384800 -0.13012145 -0.21360035
-0.09353253 -0.12368462 -0.25706050
-0.10373828 -0.14281392 -0.16139345
-0.10867266 -0.13574508 -0.18905893
-0.10042206 -0.10858767 -0.29667899
0.09705076 0.24438475 -0.17235738
-0.11299789 0.16618559 -0.29701087
-0.11701194 0.14338657 -0.33571303
-0.12914197 0.06879140 -0.42418826
-0.12481847 0.09300947 -0.39887857
-0.13215406 0.04365628 -0.44359317
-0.12123971 0.11891988 -0.37029943
-0.13584526 0.02241926 -0.46086401
-0.13769531 0.00683594 -0.47507617
-0.13942707 0.00097656 -0.48865515
-0.12958509 -0.05834945 -0.46840817
-0.13378906 -0.04311435 -0.48110837
-0.13743779 -0.02764095 -0.48878112
-0.12597656 -0.02636719 -0.49121094
-0.07018227 0.24300545 -0.07110294
-0.08918787 0.20574555 -0.21304074
0.04710298 0.23116505 -0.19293575
0.06801122 0.23281559 -0.17831092
0.03981422 0.21888475 -0.20173484
-0.05064222 0.28093961 -0.07163314
-0.06784115 0.24027029 -0.10688641
-0.10586140 0.22907196 -0.13354285
-0.04580010 -0.15624183 -0.09027423
-0.05640011 -0.14941403 -0.12755793
-0.02890979 -0.14746092 -0.12787108
-0.04080991 -0.16045883 -0.05665219
-0.03612154 -0.15281208 -0.01985390
0.02220813 -0.13601105 0.07467500
0.00829540 -0.12597656 0.03964010
-0.01586622 -0.14271061 0.01723804
-0.06271610 0.23384269 -0.14219482
-0.07954938 0.21261081 -0.19226968
-0.11481400 0.21567728 -0.16076976
0.06064191 0.22703874 -0.19342761
-0.15917969 -0.07519531 0.46191406
-0.15229069 -0.12780967 0.29549387
4 414
5 412
6 413
26 284
27 282
32 436
33 431
37 39
79 85
79 427
80 85
86 420
87 411
87 420
88 410
89 407
89 410
90 92
90 408
101 1534
102 104
102 107
109 1533
112 935
113 935
121 169
123 168
124 167
145 211
147 178
148 400
166 212
173 175
174 176
193 200
193 201
194 196
194 200
197 223
204 206
206 209
263 411
271 272
272 1210
296 422
305 307
305 312
306 309
306 313
308 330
311 333
312 379
313 377
314 315
314 316
315 320
316 389
317 390
319 322
322 323
328 336
329 334
330 331
330 333
331 333
331 1517
332 353
332 357
332 1519
333 357
333 1519
334 335
335 1516
336 337
337 1497
338 339
339 342
340 347
340 1517
341 343
341 1497
342 1516
343 531
344 531
345 348
346 351
347 350
347 1518
348 349
349 362
350 361
351 360
352 353
352 356
352 357
353 355
353 1515
354 355
354 356
355 369
358 360
358 1514
359 360
361 1514
361 1515
362 363
363 366
364 365
364 1513
366 367
367 368
368 466
369 1514
369 1515
370 372
371 374
371 1511
372 1513
376 377
378 379
387 388
387 390
388 515
397 1405
402 403
402 404
405 409
408 409
419 421
421 442
425 428
433 435
434 435
438 439
438 440
439 933
450 451
451 1510
452 490
460 461
460 1509
463 1510
465 468
466 1511
467 1509
492 1524
513 514
514 650
526 530
528 573
530 532
531 532
572 573
589 684
625 627
626 628
626 1496
627 1498
634 1495
635 636
636 1495
684 685
735 1385
737 1390
756 930
758 1088
759 1087
773 775
795 906
797 1329
799 1169
800 1253
801 903
812 814
812 902
815 877
835 1102
841 846
842 1406
844 1408
844 1431
853 855
854 868
861 1370
862 1374
863 1371
865 866
865 881
867 1102
873 1353
878 880
878 1014
878 1491
879 880
880 1113
887 903
890 1389
891 1380
892 1388
894 1420
896 1419
899 1379
908 1397
909 958
914 1359
915 1343
919 934
922 1381
923 1373
925 926
927 1024
929 1403
931 1030
937 1294
939 1413
942 1290
954 955
964 1399
965 1410
977 1055
988 995
989 990
989 1156
990 996
994 1150
995 1152
996 1145
998 1268
1007 1010
1015 1252
1015 1491
1016 1328
1023 1139
1025 1461
1032 1366
1033 1358
1038 1040
1038 1158
1039 1040
1039 1147
1042 1153
1047 1129
1047 1264
1054 1260
1056 1128
1056 1260
1057 1091
1063 1377
1064 1393
1065 1376
1068 1149
1069 1407
1071 1409
1072 1350
1075 1147
1076 1153
1079 1080
1080 1145
1081 1152
1083 1091
1092 1375
1093 1541
1096 1384
1097 1394
1100 1378
1101 1115
1104 1458
1110 1140
1113 1362
1114 1242
1116 1339
1117 1340
1117 1455
1118 1338
1119 1345
1120 1455
1123 1402
1126 1357
1127 1132
1128 1131
1129 1130
1130 1156
1131 1155
1132 1158
1134 1162
1138 1361
1140 1252
1140 1492
1142 1362
1142 1363
1144 1146
1144 1148
1148 1164
1155 1157
1157 1164
1168 1348
1174 1364
1175 1367
1177 1178
1181 1306
1182 1307
1185 1369
1238 1319
1239 1326
1244 1320
1254 1347
1255 1337
1258 1368
1297 1401
1298 1392
1308 1489
1309 1486
1310 1391
1311 1396
1313 1487
1314 1382
1315 1398
1316 1485
1317 1383
1327 1328
1328 1333
1338 1345
1338 1404
1339 1346
1340 1455
1345 1407
1346 1456
1350 1357
1350 1409
1351 1352
1352 1356
1356 1455
1357 1402
1358 1366
1363 1492
1373 1381
1402 1404
1403 1406
1407 1409
1460 1461
1462 1468
1464 1465
1465 1490
1466 1467
1466 1490
1467 1469
1468 1469
1517 1518
1518 1519
1522 1524
1522 1539
1523 1539
3 330 331 333
3 1117 1455 1340
3 0 29 52
3 0 689 413
3 4 687 689
3 5 687 692
3 6 415 690
3 8 436 28
3 9 13 18
3 11 14 52
3 13 48 50
3 15 663 21
3 16 21 298
3 17 293 284
3 22 294 297
3 24 292 283
3 24 286 414
3 30 710 432
3 31 437 33
3 31 431 35
3 32 692 710
3 33 437 710
3 35 71 47
3 35 278 71
3 36 710 722
3 37 721 727
3 38 53 74
3 39 281 56
3 43 235 456
3 44 1527 241
3 46 672 51
3 46 74 673
3 47 673 49
3 47 62 604
3 54 62 77
3 54 141 72
3 55 57 100
3 55 68 73
3 55 72 71
3 56 727 725
3 57 61 63
3 60 1530 68
3 62 67 604
3 63 115 68
3 63 75 70
3 64 1504 1502
3 68 140 607
3 73 141 489
3 78 722 723
3 79 422 426
3 81 238 1525
3 81 1493 434
3 81 1525 1205
3 82 1493 275
3 85 239 1203
3 86 94 441
3 86 442 263
3 88 417 960
3 91 955 408
3 92 410 406
3 95 288 724
3 95 724 1440
3 98 101 183
3 99 104 106
3 102 103 182
3 102 109 183
3 102 1532 115
3 106 182 1531
3 107 1534 1535
3 108 933 190
3 109 112 111
3 109 190 184
3 110 730 761
3 110 919 935
3 112 190 1533
3 119 1528 121
3 119 133 1503
3 120 164 127
3 121 792 168
3 121 183 185
3 126 163 132
3 126 146 152
3 133 159 161
3 139 606 141
3 140 1501 607
3 143 165 211
3 146 150 152
3 147 876 217
3 153 550 161
3 153 231 558
3 154 225 227
3 156 233 550
3 169 184 786
3 173 219 218
3 173 828 220
3 180 821 817
3 184 191 786
3 188 846 192
3 197 199 201
3 201 830 208
3 202 447 265
3 203 272 209
3 203 1212 273
3 208 829 831
3 208 830 1207
3 214 790 805
3 216 222 228
3 216 448 222
3 218 219 231
3 219 229 231
3 219 255 229
3 224 250 289
3 239 294 304
3 241 253 1203
3 242 478 507
3 243 505 506
3 245 485 487
3 247 484 560
3 249 492 455
3 252 1205 1494
3 252 1525 1536
3 256 1212 1267
3 257 272 274
3 257 1209 1235
3 257 1236 1269
3 258 1494 1207
3 261 1235 981
3 263 1289 949
3 264 421 268
3 269 1165 442
3 274 981 984
3 277 723 287
3 279 715 728
3 281 719 724
3 286 688 415
3 299 301 494
3 305 316 324
3 305 377 378
3 306 321 329
3 307 313 379
3 314 325 327
3 316 381 384
3 321 582 328
3 322 574 324
3 339 530 527
3 344 349 346
3 344 631 529
3 345 532 518
3 366 1511 1513
3 367 1509 371
3 367 469 1509
3 368 371 372
3 370 1511 373
3 370 383 377
3 374 380 376
3 384 512 514
3 384 516 513
3 391 1427 921
3 421 773 781
3 430 708 715
3 432 437 707
3 432 707 719
3 433 745 740
3 440 924 732
3 443 781 979
3 445 1270 785
3 449 824 829
3 451 460 464
3 455 488 478
3 457 1524 497
3 468 1509 1511
3 483 563 561
3 491 509 516
3 494 659 500
3 496 654 502
3 497 502 616
3 497 660 503
3 498 653 501
3 499 662 654
3 518 565 528
3 520 543 524
3 522 541 556
3 535 632 621
3 539 550 552
3 540 548 541
3 543 551 553
3 544 618 549
3 544 624 618
3 554 558 560
3 593 676 594
3 600 668 675
3 601 669 602
3 601 674 605
3 602 677 666
3 610 621 612
3 610 615 1504
3 614 1503 619
3 619 622 1502
3 638 652 655
3 641 642 645
3 642 654 657
3 643 660 656
3 643 666 680
3 652 659 655
3 653 664 658
3 655 659 663
3 655 665 670
3 656 672 666
3 657 671 668
3 658 674 669
3 665 675 676
3 690 713 707
3 692 711 710
3 697 776 703
3 697 749 776
3 698 777 706
3 702 771 770
3 703 770 711
3 706 768 712
3 712 720 721
3 714 767 761
3 718 762 732
3 720 732 724
3 726 1435 967
3 729 766 764
3 731 922 733
3 731 763 764
3 733 922 1436
3 733 1436 963
3 734 970 1323
3 737 1437 1385
3 745 983 782
3 745 979 983
3 752 1180 1471
3 752 1396 1383
3 753 1183 1476
3 754 1179 1173
3 757 1183 1473
3 759 1478 1367
3 767 1186 1191
3 769 776 774
3 769 774 1187
3 773 782 781
3 777 1188 1190
3 780 1285 972
3 781 973 1288
3 782 1191 1186
3 783 984 1001
3 784 1005 976
3 791 859 805
3 797 798 835
3 799 886 1329
3 805 810 1416
3 808 1414 862
3 813 1416 1421
3 816 902 872
3 818 827 1354
3 818 1432 834
3 821 1349 874
3 829 1197 1205
3 834 904 885
3 836 883 847
3 839 1420 905
3 852 905 860
3 858 900 1324
3 859 1419 1371
3 861 1380 1419
3 866 1359 1444
3 870 873 900
3 874 1349 1253
3 882 904 945
3 882 1324 904
3 885 947 952
3 889 1397 1422
3 893 1336 906
3 894 1414 897
3 909 1442 1167
3 912 1441 913
3 913 944 955
3 916 1332 1302
3 917 1302 952
3 920 1427 928
3 926 1328 1460
3 928 1436 1425
3 930 1364 1470
3 939 1342 1330
3 939 1482 1489
3 943 1276 1302
3 944 1277 1289
3 960 1302 961
3 967 1440 970
3 967 1399 1434
3 968 1399 1322
3 969 1410 1439
3 974 983 1003
3 974 1282 1184
3 976 1005 1048
3 981 1273 1004
3 982 1005 1171
3 983 997 1003
3 986 1269 1002
3 988 1149 1081
3 988 1134 1160
3 993 1041 1007
3 995 1162 1156
3 998 1224 1054
3 999 1049 1001
3 1000 1002 1050
3 1004 1048 1005
3 1006 1050 1028
3 1007 1084 1152
3 1011 1153 1060
3 1019 1458 1028
3 1020 1025 1029
3 1020 1029 1163
3 1031 1333 1459
3 1035 1067 1150
3 1038 1147 1144
3 1040 1073 1042
3 1044 1156 1304
3 1054 1261 1129
3 1061 1450 1098
3 1069 1118 1340
3 1085 1452 1446
3 1087 1369 1175
3 1087 1471 1476
3 1088 1474 1306
3 1088 1367 1478
3 1088 1474 1478
3 1094 1452 1384
3 1104 1459 1328
3 1109 1468 1490
3 1110 1491 1466
3 1111 1490 1468
3 1112 1464 1467
3 1114 1365 1238
3 1116 1455 1346
3 1122 1126 1455
3 1131 1164 1156
3 1131 1288 1230
3 1166 1300 1294
3 1170 1176 1473
3 1173 1186 1183
3 1181 1475 1367
3 1181 1475 1474
3 1188 1300 1193
3 1194 1201 1236
3 1195 1214 1235
3 1199 1248 1226
3 1201 1241 1216
3 1215 1246 1219
3 1217 1259 1246
3 1219 1225 1249
3 1219 1238 1256
3 1220 1479 1239
3 1228 1262 1229
3 1230 1274 1246
3 1277 1280 1282
3 1278 1291 1489
3 1278 1301 1313
3 1282 1299 1330
3 1290 1335 1296
3 1295 1483 1391
3 1306 1475 1364
3 1307 1475 1367
3 1317 1484 1396
3 1331 1342 1343
3 1342 1359 1413
3 1348 1442 1360
3 1372 1429 1408
3 1387 1391 1482
